<?xml version="1.0" encoding="utf-8"?>
<!-- Generator: Adobe Illustrator 25.2.0, SVG Export Plug-In . SVG Version: 6.00 Build 0)  -->
<svg version="1.1" id="Layer_1" xmlns="http://www.w3.org/2000/svg" xmlns:xlink="http://www.w3.org/1999/xlink" x="0px" y="0px"
	 viewBox="0 0 1096.9 1235.6" style="enable-background:new 0 0 1096.9 1235.6;" xml:space="preserve">
<style type="text/css">
	.st0{fill:#BFCBEE;stroke:#000000;stroke-width:5;stroke-miterlimit:10;}
	.st1{fill:none;stroke:#000000;stroke-width:6;stroke-miterlimit:10;}
	.st2{fill:none;stroke:#000000;stroke-width:6;stroke-linecap:round;stroke-miterlimit:10;}
	.st3{fill:#84D7EC;stroke:#3CBFD4;stroke-width:6;stroke-miterlimit:10;}
	.st4{fill:#FFFFFF;stroke:#3CBFD4;stroke-width:6;stroke-miterlimit:10;}
	.st5{fill:none;stroke:#3CBFD4;stroke-width:3;stroke-miterlimit:10;}
	.st6{fill:none;stroke:#000000;stroke-width:4;stroke-miterlimit:10;}
	.st7{fill:#DBDAFF;}
	.st8{fill:none;stroke:#3F4D79;stroke-width:7;stroke-linecap:round;stroke-miterlimit:10;}
	.st9{fill:#FFFFFF;}
	.st10{fill:#FFCFC9;}
	.st11{fill:#30456D;}
	.st12{fill:#485784;}
	.st13{fill:#3F4D79;}
	.st14{fill:#4E628C;}
	.st15{fill:#67A2FB;}
	.st16{fill:none;stroke:#AEE5F2;stroke-width:4;stroke-miterlimit:10;}
	.st17{fill:#AEE5F2;}
	.st18{fill:#FAB6AD;}
	.st19{fill:#FFFFFF;stroke:#000000;stroke-width:6;stroke-miterlimit:10;}
	.st20{fill:#3CBFD4;}
	.st21{fill:none;stroke:#FFFFFF;stroke-width:3;stroke-miterlimit:10;}
	.st22{fill:none;stroke:#FAB6AD;stroke-width:3;stroke-linecap:round;stroke-miterlimit:10;}
</style>
<path class="st0" d="M173.7,740.7h337.4c7,0,12.7,5.7,12.7,12.7v34.7c0,7-5.7,12.7-12.7,12.7H173.7c-7,0-12.7-5.7-12.7-12.7v-34.7
	C161,746.4,166.7,740.7,173.7,740.7z"/>
<path class="st1" d="M172.3,1232.1l40.4-420.4c0.9-8.4,13.3-8.3,14.1,0.1l44.8,420.3"/>
<path class="st1" d="M403.3,1232.1l40.4-420.4c0.9-8.4,13.3-8.3,14.1,0.1l44.8,420.3"/>
<line class="st2" x1="411.3" y1="1178.4" x2="495.6" y2="1178.4"/>
<line class="st2" x1="262.7" y1="1178.4" x2="177.6" y2="1178.4"/>
<path class="st3" d="M712,170.6l14.5,7.5c7.1,3.7,9.8,12.4,6.2,19.4l-26.7,51.7l0,0l-40.1-20.7l0,0l26.7-51.7
	C696.2,169.7,704.9,166.9,712,170.6z"/>
<path class="st4" d="M665.8,228.4l40.1,20.8l0,0L688,283.9c-3,5.8-10.2,8.1-16,5.1l0,0l-19-9.8c-5.8-3-8.1-10.2-5.1-16l0,0
	L665.8,228.4L665.8,228.4z"/>
<line class="st5" x1="658" y1="243.4" x2="678.9" y2="236.5"/>
<line class="st5" x1="653.2" y1="252.7" x2="689.5" y2="240.7"/>
<line class="st5" x1="649.8" y1="262.1" x2="699.6" y2="245.9"/>
<line class="st5" x1="648" y1="271.6" x2="700.9" y2="254.3"/>
<line class="st5" x1="652.4" y1="279" x2="696.9" y2="264.5"/>
<line class="st5" x1="662.5" y1="284.2" x2="692.9" y2="274.3"/>
<line class="st1" x1="1095.8" y1="65" x2="641.3" y2="237.5"/>
<line class="st1" x1="938.5" y1="122.2" x2="938.5" y2="1218.1"/>
<line class="st1" x1="938.5" y1="1013.3" x2="1049.5" y2="1218.1"/>
<line class="st1" x1="937.5" y1="1013.3" x2="836.5" y2="1218.1"/>
<path class="st6" d="M1063.7,76.8c-0.6,9.9-39.8,127.8-197.7,80.4c-142.4-42.8-168.8,61.3-168.8,61.3"/>
<path class="st1" d="M1019.3,94.1c-28.1,10.7-167.3,63.5-80.8,380.6c82.7,303,20.1,448-1,535.2"/>
<path class="st7" d="M941.1,1227.4c-10.3,6.4-88.7,6-100.6,0s-14.2-16.3-16.1-29.8s-29-10.1-30.9-18.8c-3.9-18,19.1-51.8,24.4-59.6
	c-4.4,12.9,46.5,10.8,50,2.4c4.6,21.1,39.1,61.2,59.3,68.8C938.4,1194.6,951.5,1221.1,941.1,1227.4z"/>
<path class="st8" d="M793.5,1183.8c0,0,22.6,3.3,28.9,14.8c6.5,12,6.2,22.8,18.1,28.8s93.2,6.4,103.6,0"/>
<path class="st9" d="M868.3,1175.3c11.9-5.7,25.5-6.4,37.9-2"/>
<path class="st9" d="M859.3,1159.3c0,0,11-10.4,31.9-3"/>
<path class="st10" d="M855.3,1064l12.5,57.5c-3.5,8.4-41.5,14-49,2.6c-10.9-16.6-34.3-59.4-34.3-59.4L855.3,1064z"/>
<g id="LEG">
	<path class="st11" d="M748.4,687.3c-14.4-39-300.6-92-300.6-92l-134.3,31.1c-4.9,13.8-13.9,99.7,58.6,133.4
		c76.9,35.7,254,1.3,254,1.3S606.7,884.6,781.5,1065h77C842.3,962.7,768.9,742.8,748.4,687.3z"/>
	<path class="st12" d="M770,1053.7c0,0-1,19.3,18,22.3c7.1,1.1,70.6-3,74.4-6s-3-21.2-3-21.2S824.1,1059.4,770,1053.7z"/>
</g>
<path class="st7" d="M607.1,1227.4c-10.3,6.4-83.7,6-95.6,0s-9.1-16.3-11.1-29.8s-25.3-29-26.9-37.8c0,0,7.6-31.2,32.4-45.7
	c-4.4,12.9,42.5,15.8,46,7.4c4.9,28.3,24.8,69.4,43.3,73.8C606.8,1198.2,617.5,1221.1,607.1,1227.4z"/>
<path class="st8" d="M473.5,1160.8c0,0,21.5,28.9,24.9,37.8c4.9,12.8,1.2,22.8,13.1,28.8s88.2,6.4,98.6,0"/>
<path class="st9" d="M539.3,1175.3c0,0,14-11.4,34.9-4"/>
<path class="st9" d="M530.3,1159.3c0,0,14-11.4,34.9-4"/>
<path class="st10" d="M561.3,1064l-9.5,57.5c-3.5,8.4-44.5,11.2-46-2.4c-1.5-14.3-6.3-54.4-6.3-54.4L561.3,1064z"/>
<g id="LEG-2">
	<path class="st13" d="M625.2,707.5c-19.1-70.8-253-90.3-253-90.3L166,617.4c-4.9,13.8-13.9,108.7,58.6,142.4
		c76.9,35.7,237,15.7,237,15.7s-33.4,161.3,33.2,289.5h89.3C567.9,962.7,640.6,764.5,625.2,707.5z"/>
	<path class="st14" d="M486,1048.7c0,0-5,24.3,14,27.3c7.1,1.1,79.6-2,83.4-5s1-25.2,1-25.2S540.1,1054.4,486,1048.7z"/>
</g>
<path class="st9" d="M447.9,594.5c0,0-13.4,25.4-101.3,24.2c10.7-62.7,29.2-174.4,28.9-212.5c-0.5-53.5-0.9-177.5-14.6-200.8
	l-0.6-0.8l51.8-4.5c0.9,4.6,1.8,7.9,1.8,7.9s42.1,95.4,27.6,201.6C423.3,541.6,447.9,594.5,447.9,594.5z"/>
<path class="st15" d="M312.9,142.6c-11,1.9-148.4,42.8-170.2,51.8C94.5,214.4,38.3,359.5,3.8,432.7l126.7-6.5c0,0,45-75.5,48.2-75.5
	s7.4,142-2.3,171.2s-43.8,81.1-46.5,100c0,0,54.1,40,209.3,41.6c0,0,36.8-203.9,36.2-257.4s-0.9-177.5-14.6-200.8L312.9,142.6z"/>
<path class="st15" d="M415.5,172.7c3.9-0.6,11.8,15.4,63.2,31.6s124.4,216.3,124.4,216.3l-107.3,31.1c0,0-13.3,47.9,26.2,158.7
	c0,0-61.6-7.3-74.1-13.3c0,0-24.6-55.6-6.6-187.6C455.8,303.4,413.7,208,413.7,208S404.8,174.3,415.5,172.7z"/>
<path class="st16" d="M494.9,287.5c0,0,19.5,56.8,0,163"/>
<path class="st17" d="M327.5,137.4c0,0-2.9-17,1.5-23s43.4-0.9,43.4-0.9S346.5,131.3,327.5,137.4z"/>
<path class="st9" d="M434.5,217.2l-22.6-19.8c0,0-1.8-32.9,3.6-24.7c6.7,10.2,27.3,17.2,27.3,17.2L434.5,217.2z"/>
<line class="st16" x1="433.5" y1="217.2" x2="410.9" y2="197.4"/>
<path class="st9" d="M328.9,114.4c-5.4,6.4-3.2,54.6,31.1,90.2l-32.1,18.9c0,0-58.4-67.5-50.8-73.6
	C301.3,130.1,328.9,114.4,328.9,114.4z"/>
<line class="st16" x1="360" y1="205.6" x2="327.8" y2="224.5"/>
<g id="RIGHT_HAND">
	<path class="st17" d="M521.8,494.9c0,0-53.8-18.9-22.1-70.5c22.5-36.6,95.6-36.6,106.8-4.4C615,444.4,591.5,497.6,521.8,494.9z"/>
	<path class="st18" d="M548.9,436.3c-27.3,7.4-49.5,43.8-34.9,55c26.4,20.2,84.5,26,175.5-24.2c28.1-15.6-19.9-47.1-19.9-47.1
		L548.9,436.3z"/>
</g>
<path class="st19" d="M311.8,695.3c-81,25.9-168.1-20.7-194.7-103.9s17.5-171.7,98.4-197.5c31.4-10,65.1-9.5,96.2,1.5
	c35.9,12.6,74.7,5.3,103.9-18.3c11.1-8.9,23.7-15.7,37.2-20c61.9-19.8,119.5,18.7,139.8,82.4s-4.3,128.4-66.2,148.2
	c-13.5,4.3-27.7,6.1-41.9,5.3c-37.5-2.3-73.4,14.3-95.3,45.4C370.4,665.2,343.2,685.3,311.8,695.3z"/>
<circle class="st20" cx="371.6" cy="506.4" r="47.6"/>
<path class="st20" d="M269.1,502.1l9.4-3.6c2.4-0.9,5.1,0.3,6,2.7l27.4,72.6c0.9,2.4-0.3,5.1-2.7,6l-9.4,3.6c-2.4,0.9-5.1-0.3-6-2.7
	l-27.4-72.6C265.4,505.7,266.7,503,269.1,502.1z"/>
<path class="st15" d="M798.3,363.3l-349.9,152c-5.5,2.5-13.6,3.3-16.7-5l-16.9-44.7c-3.1-8.2,1.9-11,7.7-12.8l364.8-118.7
	L798.3,363.3z"/>
<path class="st21" d="M270.7,534.7c-3.1-8.2,1-17.2,9-19.9L788,341.4"/>
<path class="st21" d="M276.6,550.3c-3.1-8.2,1-17.2,9-19.9l504.7-182.6"/>
<path class="st21" d="M278.3,554.8c3.1,8.2,12.1,12.3,19.9,9l496.3-205"/>
<path class="st21" d="M272.1,538.2c3.1,8.2,12.1,12.3,19.9,9l500.1-194.9"/>
<path class="st4" d="M919.9,318.1l-118.5,59c-3.8,1.9-8.3,0.3-10.2-3.4c-0.3-0.7-0.6-1.4-0.7-2.1l-7.9-46.3c-0.7-4,1.9-7.8,5.9-8.7
	l85.2-18.6c4.1-0.9,8.4-0.6,12.4,0.8l33.4,11.9c2.1,0.7,3.2,3,2.5,5.1C921.6,316.8,920.8,317.7,919.9,318.1z"/>
<ellipse transform="matrix(0.8759 -0.4825 0.4825 0.8759 -44.8142 426.1203)" class="st15" cx="805.9" cy="300.2" rx="8.4" ry="3.4"/>
<ellipse transform="matrix(0.8435 -0.5372 0.5372 0.8435 -26.9547 494.5883)" class="st15" cx="835.2" cy="293.5" rx="8.4" ry="3.4"/>
<ellipse transform="matrix(0.8435 -0.5372 0.5372 0.8435 -18.9662 508.6937)" class="st15" cx="863.4" cy="286.9" rx="8.4" ry="3.4"/>
<ellipse transform="matrix(0.8412 -0.5408 0.5408 0.8412 -69.9996 507.0264)" class="st15" cx="828.2" cy="372.7" rx="8.4" ry="3.4"/>
<ellipse transform="matrix(0.8435 -0.5372 0.5372 0.8435 -59.7573 518.1566)" class="st15" cx="859.3" cy="361.6" rx="8.4" ry="3.4"/>
<ellipse transform="matrix(0.8435 -0.5372 0.5372 0.8435 -45.9513 533.0885)" class="st15" cx="891.8" cy="345.4" rx="8.4" ry="3.4"/>
<g id="RIGHT_ARM">
	<path class="st10" d="M689.5,467.1c9.8-5,38.8-42.7,41.2-52.8s3.1-49.7,1.9-52.9s-13.1-11.9-13.1-11.9s-11.3-4.6-20.7-5.1
		c0,0-2.8,9.1,6.6,15c0,0,3.9,24.8,0.6,27c-4.2,2.8-7.4-13.5-10.6-21.7c-2-5-15.8,1.6-15.9,4.9c-0.1,1.7,0,3.5,0.3,5.1
		c0,0-8.2,3.4-10.3,7.2s-8,49.5-0.8,63.4S689.5,467.1,689.5,467.1z"/>
	<path class="st22" d="M679.3,377.1c0.2,2.6,2.8,14.1,2.8,14.1"/>
	<path class="st22" d="M717.5,350.8c4.7,2,6.1,29.6,6.1,29.6"/>
</g>
<g id="LEFT_HAND">
	<path class="st17" d="M135.2,417.9c-32.2-4.1-63.9,1.7-92.6,27.1c-4.4,3.9-24.9,28.5-12.2,48.5c-0.5,0.8-1,1.7-1.5,2.5
		c0,0-50.6-36.2-18.1-79.5c25.8-34.3,95.5-28.1,115.8-13.4C133,407.6,134.7,414.4,135.2,417.9z"/>
	<path class="st10" d="M42.6,445c-7,6.2-53.7,63.5,52.1,73.9c105.9,10.3,212.7,1.1,217.4,3.1s37.9,20.2,49.7,18.5s49.7-11,51-15.6
		s14.8-50.7,14.8-50.7s-12.2-4-19.7,9.2c-8.5,14.9-38.5,22.1-48.9,14.9s17.2-9,23.1-13.7s6.4-7.6,6.4-7.6s-21.2-4.4-29-7.1
		s-42.6,15.4-45.5,14.8C244.5,470.6,129.4,368.1,42.6,445z"/>
</g>
<g id="NECK">
	<path class="st10" d="M327.9,137.6c56.5-21.1,75.5-57.8,75.5-57.8l15.9,88.8c0,0-10.7,6.1-7.1,31.5c3.2,22.5-34.8,21.2-56.2,0.4
		C331.2,176.6,327.9,137.6,327.9,137.6z"/>
	<path class="st18" d="M419.2,168.6c0,0-10.7,6.1-7.1,31.5c0.5,2.8-0.1,5.6-1.7,7.9c-17-8.9-35.6-32.6-31.9-67
		c1.9-16.9,24.5-35.5,29.1-39.2L419.2,168.6z"/>
</g>
<path id="HEAD-2" class="st10" d="M402.6,102.9c-4.5,3.7-18.2,21.7-14.1,32.6c6.8,18,42,58.5,56,53.6c6-2.1,41.4-32.5,53-50.8
	c4.3-6.8,24.4-51.2,14-59.7C498.9,68.3,453.9,61,402.6,102.9z"/>
<path d="M371.3,113.5c6.1,3.7,23.9-6.1,52-18.5c44.1-19.5,103-37.8,90.3,5.1c0,0,7.9-14,7.9-30c0-19.2-14.7-31.2-25-46.4
	c-12.7-18.8-24.7-27-74.4-22.4S348.4,22,353.6,44.1s23.2,33.7,23.2,33.7S359.7,106.5,371.3,113.5z"/>
<path class="st21" d="M375.9,76.8c7.4-13.6,14.9-20.4,14.9-20.4"/>
</svg>
