<svg xmlns="http://www.w3.org/2000/svg" viewBox="0 0 212.07 380.56"><defs><style>.cls-1{fill:#e930f2;}.cls-2{opacity:0.3;}.cls-3{fill:#263238;}.cls-4{fill:#ffd2bc;}.cls-5{fill:#455a64;}.cls-6{fill:#e0e0e0;}.cls-7{fill:#f9bea7;}.cls-8{fill:#654742;}.cls-9{fill:#b8b8f4;}.cls-10{fill:#fff;}.cls-11{fill:#ce32d6;}</style></defs><g id="Character"><path class="cls-1" d="M280.18,266.41l30.49-8.22s-6.54-19.34-11.63-33.31c-4.48-12.32-12-17.46-15.94-20.24a11.88,11.88,0,0,0-5.35-2.12c-7.21-1-26.94-3.56-36.73-4.37-12.1-1-37.38,5.65-37.38,5.65S181.46,216.1,174,221.06a10.34,10.34,0,0,0-4,5c-1.39,3.72-3.14,10.11-5.25,18.37L159,267.11l26-.79c5.24,15.91,10.09,30.2,10.09,30.2l-4.71,29.26S225.89,340,235,339s50.24-16.9,50.24-16.9-4.71-46.42-4.71-47.76C280.5,273.81,280.36,270.44,280.18,266.41Z" transform="translate(-141.16 -113)"/><g class="cls-2"><path d="M250.19,235.47a9.39,9.39,0,0,0-8.31-3.12,18.83,18.83,0,0,0-8.48,3.49c-7.88,5.35-13.48,13.41-18.43,21.55a259.86,259.86,0,0,0-21.66,44.73l.21,4C200,305.29,204.2,299.84,207,294s4-12.39,6.49-18.42A47.46,47.46,0,0,1,239.08,250a12.25,12.25,0,0,0,10.51-3.78C252.11,243.23,252.58,238.51,250.19,235.47Z" transform="translate(-141.16 -113)"/></g><path class="cls-3" d="M280.47,271.46c-.14,0-1-8.43-1.93-18.85s-1.55-18.9-1.41-18.91,1,8.43,1.93,18.86S280.61,271.45,280.47,271.46Z" transform="translate(-141.16 -113)"/><path class="cls-3" d="M178,233.7a6.28,6.28,0,0,1,.38,1.31c.23,1,.52,2.17.86,3.62.7,3.05,1.63,7.28,2.63,12s1.87,8.92,2.48,12c.28,1.46.51,2.69.69,3.65a8,8,0,0,1,.19,1.35,6.59,6.59,0,0,1-.39-1.31c-.22-.95-.51-2.16-.85-3.61-.7-3.06-1.63-7.29-2.63-12s-1.87-8.92-2.48-12c-.28-1.46-.51-2.68-.69-3.65A6.88,6.88,0,0,1,178,233.7Z" transform="translate(-141.16 -113)"/><path class="cls-3" d="M275.82,202.88c.15.05-.72,3.43-1.33,7.68s-.73,7.75-.88,7.74a8.55,8.55,0,0,1-.1-2.29,46.52,46.52,0,0,1,.47-5.52,47.43,47.43,0,0,1,1.1-5.43A9.35,9.35,0,0,1,275.82,202.88Z" transform="translate(-141.16 -113)"/><path class="cls-4" d="M280.18,266.41c-.27.08,7.75,27.65,7.75,27.65l-23.58-1.92L253.1,305.93l40.18,14.8s24.89-11.1,24.89-12.11-8.95-50-8.95-50Z" transform="translate(-141.16 -113)"/><path class="cls-3" d="M262.83,269.61A1.68,1.68,0,0,0,264,269a2,2,0,0,0,.51-1.51,1.94,1.94,0,0,0-1.37-1.59,2.63,2.63,0,0,0-2.61.47,3.85,3.85,0,0,0-1,1.26,4.28,4.28,0,0,0-.31.8c-.07.28-.16.58,0,.76a.63.63,0,0,0,.69.18,1.29,1.29,0,0,0,.7-.49,2,2,0,0,0,.28-1.78,2.61,2.61,0,0,0-3.54-1.17,4.76,4.76,0,0,0-1.79,1.41,2,2,0,0,0-.45,1,.65.65,0,0,0,.49.73,1.23,1.23,0,0,0,1-.34,1.6,1.6,0,0,0,.45-1,2.42,2.42,0,0,0-1.05-2.12,3.06,3.06,0,0,0-2.5-.32,2.94,2.94,0,0,0-2,1.61,1.52,1.52,0,0,0-.06,1.23,1,1,0,0,0,1,.55,1.43,1.43,0,0,0,1.09-.6,1.45,1.45,0,0,0,.12-1.26,2.13,2.13,0,0,0-2.21-1.39,4.2,4.2,0,0,0-2.68,1.26,7,7,0,0,0-1,1.15,1.49,1.49,0,0,0-.29,1.3.75.75,0,0,0,1.07.27,1.21,1.21,0,0,0,.61-1.15,3.28,3.28,0,0,0-1.57-2.57,3.36,3.36,0,0,0-3.07-.24,3.28,3.28,0,0,0-1.3.93,1.89,1.89,0,0,0-.46,1.41c.11,1,1.76,1.21,2.3.36a2,2,0,0,0-.69-2.7,3.56,3.56,0,0,0-3.14-.17,8.75,8.75,0,0,0-1.5.75,3.68,3.68,0,0,0-1.18,1.06,1.29,1.29,0,0,0-.09,1.35.74.74,0,0,0,1.06.35,1.18,1.18,0,0,0,.53-1.18,2.54,2.54,0,0,0-.6-1.36,3.06,3.06,0,0,0-2.68-1.1,3,3,0,0,0-2.35,1.57,1.57,1.57,0,0,0-.09,1.3.92.92,0,0,0,1,.49,1.26,1.26,0,0,0,1-.72,1.65,1.65,0,0,0,0-1.29,2.76,2.76,0,0,0-2.13-1.55,5.76,5.76,0,0,0-2.74.08,2.36,2.36,0,0,0-1.75,1.68,1.74,1.74,0,0,0,1,2,1.46,1.46,0,0,0,1.7-1.14,2.41,2.41,0,0,0-.63-2.12,3.75,3.75,0,0,0-1.92-1.15,4.41,4.41,0,0,0-4,1,3.18,3.18,0,0,0-1,1.65,1.62,1.62,0,0,0,.51,1.59,1.07,1.07,0,0,0,1.45,0,1.53,1.53,0,0,0,.49-1.38,3,3,0,0,0-1.6-2.16,3.25,3.25,0,0,0-2.19-.33,3.4,3.4,0,0,0-1.49.72,5,5,0,0,0-.88,1.06,1.33,1.33,0,0,1,.15-.32,3.11,3.11,0,0,1,.66-.82,3.41,3.41,0,0,1,1.52-.8,3.36,3.36,0,0,1,2.32.3,3.21,3.21,0,0,1,1.77,2.31,1.81,1.81,0,0,1-.56,1.63,1.38,1.38,0,0,1-1.83.08,1.93,1.93,0,0,1-.64-1.89,3.49,3.49,0,0,1,1.06-1.84,4.71,4.71,0,0,1,4.31-1.11,4,4,0,0,1,2.14,1.26,2.76,2.76,0,0,1,.72,2.5,2.1,2.1,0,0,1-.79,1.16,1.58,1.58,0,0,1-1.43.28,1.77,1.77,0,0,1-1.09-1,2.56,2.56,0,0,1-.2-1.47,2.79,2.79,0,0,1,2.06-2,6.13,6.13,0,0,1,3-.11,3.25,3.25,0,0,1,2.49,1.83,2.15,2.15,0,0,1,0,1.67,1.76,1.76,0,0,1-1.37,1,1.47,1.47,0,0,1-1.58-.76,2.05,2.05,0,0,1,.08-1.75,3.53,3.53,0,0,1,2.76-1.87,3.58,3.58,0,0,1,3.14,1.28,3.07,3.07,0,0,1,.73,1.64,1.7,1.7,0,0,1-.8,1.7,1.27,1.27,0,0,1-1,.12,1.35,1.35,0,0,1-.77-.67,1.87,1.87,0,0,1,.11-1.9,4.3,4.3,0,0,1,1.36-1.23,8.76,8.76,0,0,1,1.59-.8,4.08,4.08,0,0,1,3.63.22,2.5,2.5,0,0,1,.83,3.48,1.87,1.87,0,0,1-1.83.74,1.81,1.81,0,0,1-.94-.41,1.58,1.58,0,0,1-.51-.92,2.42,2.42,0,0,1,.58-1.85,3.94,3.94,0,0,1,5.07-.79,3.73,3.73,0,0,1,1.82,3,1.74,1.74,0,0,1-.91,1.63,1.46,1.46,0,0,1-1,.13,1.21,1.21,0,0,1-.8-.66,2,2,0,0,1,.33-1.8,7.29,7.29,0,0,1,1.14-1.26,4.8,4.8,0,0,1,3-1.39,3.11,3.11,0,0,1,1.65.41,2.53,2.53,0,0,1,1,1.34,2,2,0,0,1-.19,1.7,1.94,1.94,0,0,1-1.48.82,1.54,1.54,0,0,1-1.46-.84,2,2,0,0,1,.06-1.64,3.46,3.46,0,0,1,2.35-1.87,3.56,3.56,0,0,1,2.88.4,2.86,2.86,0,0,1,1.23,2.53,1.79,1.79,0,0,1-2,1.75,1.07,1.07,0,0,1-.81-1.17,2.39,2.39,0,0,1,.55-1.23,5.15,5.15,0,0,1,2-1.52,3,3,0,0,1,4,1.41,2.32,2.32,0,0,1-.35,2.11,1.73,1.73,0,0,1-.89.59,1,1,0,0,1-1-.32,1.3,1.3,0,0,1,0-1,4.83,4.83,0,0,1,.33-.85,4.16,4.16,0,0,1,1.07-1.33,2.88,2.88,0,0,1,2.86-.47,2.12,2.12,0,0,1,1.46,1.77,2.22,2.22,0,0,1-.6,1.61A1.41,1.41,0,0,1,262.83,269.61Z" transform="translate(-141.16 -113)"/><polygon class="cls-5" points="79.74 153.72 65.98 205.72 109.73 207.1 123.49 155.74 79.74 153.72"/><polygon class="cls-6" points="79.74 153.72 77.99 153.89 64.11 201.92 66.22 204.82 79.74 153.72"/><path class="cls-4" d="M249.87,280h14.21a3.36,3.36,0,0,1,3.14,2,9.52,9.52,0,0,1,.82,4.1,5.22,5.22,0,0,1,1,2.87,76.23,76.23,0,0,1,0,7.79c-.14.41-1.64.82-1.64.82a5.21,5.21,0,0,1,.13,3.82,4,4,0,0,1-2.05,2.05s-1.91,4.37-3.82,4.92-3.69,0-4.65,0-16.39-7.92-16.39-7.92V298.7s-5.47.55-5.6-2.46,3.55-2.83,3.55-2.83h8.33s-9.15.37-10-1-1.91-4.65.89-5.2,15.44-.54,15.44-.54l6.9,1.14h1.09l-.85-3s-7.25,0-8.32-.15-3.13-.41-3.13-2.33S249.87,280,249.87,280Z" transform="translate(-141.16 -113)"/><path class="cls-7" d="M257.86,294.26a12.13,12.13,0,0,1-2.66.17c-1.64,0-3.91,0-6.41-.17s-4.76-.42-6.38-.65a12.12,12.12,0,0,1-2.61-.52,13.21,13.21,0,0,1,2.65.13c1.63.14,3.89.33,6.38.49s4.74.26,6.38.34A13.45,13.45,0,0,1,257.86,294.26Z" transform="translate(-141.16 -113)"/><path class="cls-7" d="M256.56,301.93a9.37,9.37,0,0,1-2.36-.07c-1.46-.13-3.46-.37-5.66-.72s-4.17-.77-5.59-1.11a8.85,8.85,0,0,1-2.26-.68,11.56,11.56,0,0,1,2.34.3l5.6,1,5.61.87A11.78,11.78,0,0,1,256.56,301.93Z" transform="translate(-141.16 -113)"/><path class="cls-7" d="M268.46,291.18s.21.06.5.3a3.4,3.4,0,0,1,.87,3.88,3.62,3.62,0,0,1-2.45,2.07l.16-.39a4.47,4.47,0,0,1-2.05,6.38l.16-.18a8.76,8.76,0,0,1-3.08,4.67,7.39,7.39,0,0,1-1.38.85,1.67,1.67,0,0,1-.55.19c0-.07.71-.4,1.73-1.29a8.93,8.93,0,0,0,2.77-4.54l0-.13.13-.05a4,4,0,0,0,1.81-5.62l-.21-.32.37-.08a3.21,3.21,0,0,0,2.16-1.74,3.11,3.11,0,0,0,.15-2.24A4.6,4.6,0,0,0,268.46,291.18Z" transform="translate(-141.16 -113)"/><path class="cls-4" d="M235,223.58l8.77-17.69L241,198.15s13.17-6.83,8.67-20.77c-2.17-6.73-7.77-20.23-13-32.39a27.29,27.29,0,0,0-33.79-15.12l-1.34.45c-14.16,5.7-17.23,20.91-11.14,34.91l17.8,52Z" transform="translate(-141.16 -113)"/><path class="cls-8" d="M241,198.13a34.05,34.05,0,0,1-19.83,1s7.64,8.55,21.07,2.64Z" transform="translate(-141.16 -113)"/><path class="cls-3" d="M237.17,156a2.09,2.09,0,0,1-1.24,2.65,2,2,0,0,1-2.64-1.1,2.1,2.1,0,0,1,1.23-2.65A2,2,0,0,1,237.17,156Z" transform="translate(-141.16 -113)"/><path class="cls-3" d="M236,152c-.16.34-2-.26-4.17.46s-3.34,2.31-3.66,2.13c-.15-.08-.06-.63.46-1.35a5.72,5.72,0,0,1,2.82-2,5.45,5.45,0,0,1,3.42,0C235.67,151.43,236.05,151.82,236,152Z" transform="translate(-141.16 -113)"/><path class="cls-3" d="M217.54,162.49a2.1,2.1,0,0,1-1.24,2.65,2,2,0,0,1-2.64-1.1,2.1,2.1,0,0,1,1.23-2.65A2,2,0,0,1,217.54,162.49Z" transform="translate(-141.16 -113)"/><path class="cls-3" d="M215.24,158.3c-.12.36-2.05,0-4.09.91s-3.07,2.66-3.41,2.51c-.16-.06-.12-.61.31-1.39a5.72,5.72,0,0,1,2.58-2.32,5.49,5.49,0,0,1,3.4-.41C214.88,157.79,215.3,158.14,215.24,158.3Z" transform="translate(-141.16 -113)"/><path class="cls-3" d="M228.23,173.45a15,15,0,0,1,3.25-1.79c.53-.24,1-.52,1-.93a3,3,0,0,0-.91-1.49l-3-3.6c-4.22-5.16-7.47-9.47-7.26-9.64s3.8,3.87,8,9l2.95,3.65a3.36,3.36,0,0,1,1,2,1.43,1.43,0,0,1-.63,1.09,3.43,3.43,0,0,1-.88.44A14.29,14.29,0,0,1,228.23,173.45Z" transform="translate(-141.16 -113)"/><path class="cls-3" d="M212.34,150.86c0,.65-2.24,1.1-4.64,2.24s-4.19,2.51-4.7,2.1c-.23-.2-.06-.87.56-1.7a9,9,0,0,1,7.12-3.3C211.72,150.26,212.34,150.56,212.34,150.86Z" transform="translate(-141.16 -113)"/><path class="cls-3" d="M233.42,146.24c-.21.61-1.85.6-3.62,1.17s-3.16,1.43-3.67,1c-.24-.2-.16-.76.34-1.44a5.21,5.21,0,0,1,2.67-1.78,5.28,5.28,0,0,1,3.21,0C233.14,145.52,233.51,146,233.42,146.24Z" transform="translate(-141.16 -113)"/><path class="cls-4" d="M195,175.13c-.27,0-10.49.38-7,9.77s12.21,3.95,12.12,3.67S195,175.13,195,175.13Z" transform="translate(-141.16 -113)"/><path class="cls-7" d="M196,186.08c-.05,0-.12.18-.35.41a1.77,1.77,0,0,1-1.21.48c-1.13,0-2.55-1.26-3.23-2.94a5.79,5.79,0,0,1-.41-2.51,2,2,0,0,1,.76-1.71.87.87,0,0,1,1.13.09c.23.21.24.42.29.42s.14-.23-.08-.59a1,1,0,0,0-.58-.45,1.36,1.36,0,0,0-1,.09,2.44,2.44,0,0,0-1.16,2.09,5.91,5.91,0,0,0,.4,2.83c.77,1.87,2.39,3.28,3.9,3.17a1.85,1.85,0,0,0,1.4-.81C196,186.31,196,186.09,196,186.08Z" transform="translate(-141.16 -113)"/><path class="cls-3" d="M222.45,177c.34-.14,1.12,2.17,3.65,3.15s4.92-.11,5.05.21c.08.14-.4.64-1.43,1a6.14,6.14,0,0,1-4.17,0,5.3,5.3,0,0,1-2.92-2.69C222.22,177.74,222.28,177.08,222.45,177Z" transform="translate(-141.16 -113)"/><path class="cls-3" d="M240.1,124.46a5.8,5.8,0,0,0-4.52-3.17,8.68,8.68,0,0,0-.69-1.51,7.43,7.43,0,0,0-8.75-3.24,7.21,7.21,0,0,0-12.74.63,8.64,8.64,0,0,0-9.17,1.76,2.18,2.18,0,0,0-.66,1,1,1,0,0,0,.15.78,5.38,5.38,0,0,0-4.91-1,5.12,5.12,0,0,0-1.58.8A6.12,6.12,0,0,0,194,123.8a8.7,8.7,0,0,0-8.52,7.79,8.25,8.25,0,0,0-5.08,7.7,6,6,0,0,0-1.23,10.38s-6.14,3.75-2.42,9.1c1.9,2.74,5.79.84,5.79.84l11.54,17.46c-.05.13,2,1.94,3,1.07s1.24-2.26,1.54-3.54a14.31,14.31,0,0,0,.73-4.42,3.47,3.47,0,0,0-2.56-3.29,5.21,5.21,0,0,0,1.7-4.92,15.23,15.23,0,0,0-2-5.05l-3.87-7.07a10.05,10.05,0,0,0,6.39-8.14,5.73,5.73,0,0,0,7.23-4.58,7.46,7.46,0,0,0,10.07,1.49c.29,2.09,4.43,2.73,6.53,2.6s4.07-2.31,4.07-2.31a12,12,0,0,0,4.31.09h0l.21-.06c2.77-.64,4.57-3.95,5.07-6.74a5.58,5.58,0,0,0,2-.91A5.76,5.76,0,0,0,240.1,124.46Z" transform="translate(-141.16 -113)"/><path class="cls-4" d="M162.11,267s-6.08,22-7.43,27.42-1.33,17.88,1.7,21.58,13.12,6.06,13.12,6.06,19.76-9.65,26.49-21.43,25.12-43.79,25.12-43.79l-5.83-16-30.63,29.25.32-3.8Z" transform="translate(-141.16 -113)"/><path class="cls-5" d="M226.1,190.44h0a2.15,2.15,0,0,1,2.9.95l17.63,35.11-4.53,2-17-35.22A2.15,2.15,0,0,1,226.1,190.44Z" transform="translate(-141.16 -113)"/><path class="cls-4" d="M214.3,241.88l16.49-17h15.8l10.12,13.35s-4.8.9-6.52-1.68L248,233.38s2.23,4.89,1,7.29c0,0-2.37,5.59-2.75,6.19-.71,1.12-1.26,1.84-3.32,1.5s-5.26-2-4.92-3.22a2,2,0,0,1,1.55-1.37l-4.81-.69s-4.84,8.77-7.76,10.83a22.89,22.89,0,0,1-5.87,3Z" transform="translate(-141.16 -113)"/><path class="cls-8" d="M185.27,269.61c0,.08-1.34.71-3.43,1.94a46.8,46.8,0,0,0-14.05,12.53c-1.45,1.94-2.24,3.23-2.32,3.18a4.42,4.42,0,0,1,.47-.95c.33-.6.86-1.44,1.55-2.45a41.31,41.31,0,0,1,14.17-12.63,27.09,27.09,0,0,1,2.6-1.26A3.54,3.54,0,0,1,185.27,269.61Z" transform="translate(-141.16 -113)"/><path class="cls-7" d="M234.41,229.82a9.89,9.89,0,0,1,2.32-.4c1.43-.17,3.42-.38,5.62-.57a7.09,7.09,0,0,1,1.66,0,3.66,3.66,0,0,1,1.49.6,5.21,5.21,0,0,1,1.67,2,6.91,6.91,0,0,1,.74,2.24c-.09,0-.38-.83-1.07-2.07a5.16,5.16,0,0,0-1.61-1.79,3,3,0,0,0-1.29-.49,6.74,6.74,0,0,0-1.55,0c-2.19.19-4.19.34-5.63.42A11.07,11.07,0,0,1,234.41,229.82Z" transform="translate(-141.16 -113)"/><path class="cls-7" d="M247,246c-.08,0,.07-1.2,0-3.11a21.84,21.84,0,0,0-.46-3.32c-.27-1.2-.65-2.64-1.86-3.34a6.9,6.9,0,0,0-1.94-.69l-1.95-.44a24.26,24.26,0,0,0-3.31-.51,25.72,25.72,0,0,0-3.1.08,2,2,0,0,1,.81-.26,10.47,10.47,0,0,1,2.3-.19,20,20,0,0,1,3.4.41c.63.12,1.28.26,2,.41a7.34,7.34,0,0,1,2.1.74,3.72,3.72,0,0,1,1.48,1.72,9.28,9.28,0,0,1,.58,2,18.76,18.76,0,0,1,.36,3.4,15.91,15.91,0,0,1-.15,2.3A2.09,2.09,0,0,1,247,246Z" transform="translate(-141.16 -113)"/><path class="cls-7" d="M241.28,240.29a11.11,11.11,0,0,1,.25,3.17v.31l-.32-.06a2.87,2.87,0,0,0-.52-.05,3.16,3.16,0,0,0-2.19,1c-.44.47-.59.87-.67.84s0-.48.39-1.07a3.11,3.11,0,0,1,2.46-1.25,2.67,2.67,0,0,1,.64.07l-.31.25A11.07,11.07,0,0,1,241.28,240.29Z" transform="translate(-141.16 -113)"/><path class="cls-7" d="M241.29,240.82a18,18,0,0,1-3.2-.15,18.85,18.85,0,0,1-3.2-.19,10.5,10.5,0,0,1,6.4.34Z" transform="translate(-141.16 -113)"/><path class="cls-7" d="M235.15,240a6.67,6.67,0,0,1-.72,3.31,6.45,6.45,0,0,1-1.86,2.83c-.12-.09.68-1.35,1.38-3S235,240,235.15,240Z" transform="translate(-141.16 -113)"/><path class="cls-9" d="M298.31,432.23l-1.43,45.27,56.32,2.06c-.14-5.39-28.87-17.26-28.87-17.26l2.1-29Z" transform="translate(-141.16 -113)"/><path class="cls-10" d="M307,459.22a2.3,2.3,0,0,0-1.68,2.57,2.2,2.2,0,0,0,2.52,1.69,2.44,2.44,0,0,0,1.78-2.73,2.31,2.31,0,0,0-2.83-1.47" transform="translate(-141.16 -113)"/><path class="cls-10" d="M296.88,477.5l.32-4.56,53.88,3.68s2.47,1.18,2.12,2.94Z" transform="translate(-141.16 -113)"/><path class="cls-3" d="M325.25,462.05c0,.27-1.4.35-2.78,1.18s-2.15,2-2.4,1.85.22-1.7,1.91-2.68S325.32,461.8,325.25,462.05Z" transform="translate(-141.16 -113)"/><path class="cls-3" d="M331.07,464.71c.05.26-1.16.69-2.13,1.82s-1.3,2.35-1.57,2.32-.39-1.58.85-3S331.07,464.44,331.07,464.71Z" transform="translate(-141.16 -113)"/><path class="cls-3" d="M334.16,471.9c-.25.05-.58-1.34.18-2.82s2.07-2,2.18-1.8-.72,1-1.33,2.23S334.44,471.88,334.16,471.9Z" transform="translate(-141.16 -113)"/><path class="cls-3" d="M325,455.39c-.13.25-1.38-.18-2.93-.13s-2.79.5-2.93.25,1.07-1.17,2.91-1.21S325.14,455.18,325,455.39Z" transform="translate(-141.16 -113)"/><path class="cls-3" d="M323.9,448.66a5.37,5.37,0,0,1-2.82-.12,12.73,12.73,0,0,1-2.92-1,13.8,13.8,0,0,1-1.59-.92,3.75,3.75,0,0,1-.82-.69,1.21,1.21,0,0,1-.08-1.47,1.56,1.56,0,0,1,1.23-.59,3.59,3.59,0,0,1,1.06.19,9.86,9.86,0,0,1,1.73.66,9.74,9.74,0,0,1,2.53,1.81c1.27,1.25,1.68,2.3,1.58,2.35s-.73-.8-2-1.85a11.43,11.43,0,0,0-2.46-1.51,10.75,10.75,0,0,0-1.6-.56c-.59-.17-1.1-.2-1.26.06-.06.1-.07.14.05.32a2.77,2.77,0,0,0,.61.51,13.38,13.38,0,0,0,1.46.9,15.62,15.62,0,0,0,2.68,1.15A19.64,19.64,0,0,1,323.9,448.66Z" transform="translate(-141.16 -113)"/><path class="cls-3" d="M323.53,449c-.1,0-.61-1-.65-2.75a9.33,9.33,0,0,1,.5-3.07,9.8,9.8,0,0,1,.78-1.69,2.35,2.35,0,0,1,1.85-1.36,1.31,1.31,0,0,1,1.15.83,3.46,3.46,0,0,1,.25,1.05,6.31,6.31,0,0,1-.06,1.9,6.53,6.53,0,0,1-1.31,2.87c-1.16,1.41-2.32,1.7-2.34,1.61s.89-.64,1.79-2a6.61,6.61,0,0,0,1-2.62,5.93,5.93,0,0,0,0-1.63c-.06-.6-.27-1.09-.5-1s-.77.42-1,.89a10,10,0,0,0-.75,1.5,10.17,10.17,0,0,0-.65,2.8C323.42,448,323.68,449,323.53,449Z" transform="translate(-141.16 -113)"/><path class="cls-9" d="M213.83,432.56l14.26,43-53.39,18c-1.41-5.21,22.76-24.77,22.76-24.77l-10.27-27.17Z" transform="translate(-141.16 -113)"/><path class="cls-10" d="M213.19,460.91a2.28,2.28,0,0,1,2.34,2,2.2,2.2,0,0,1-1.94,2.34,2.42,2.42,0,0,1-2.47-2.11c0-1.13,1.17-2.4,2.29-2.21" transform="translate(-141.16 -113)"/><path class="cls-10" d="M228.09,475.55l-1.6-4.28-50.6,18.87s-2,1.84-1.19,3.42Z" transform="translate(-141.16 -113)"/><path class="cls-3" d="M196.5,468.81c.1.26,1.44-.06,3,.35s2.61,1.27,2.82,1.08-.69-1.56-2.6-2S196.36,468.59,196.5,468.81Z" transform="translate(-141.16 -113)"/><path class="cls-3" d="M191.68,473c0,.27,1.31.34,2.56,1.14s1.91,1.88,2.17,1.78-.08-1.63-1.66-2.6S191.6,472.77,191.68,473Z" transform="translate(-141.16 -113)"/><path class="cls-3" d="M190.76,480.8c.26,0,.18-1.45-1-2.66s-2.56-1.35-2.6-1.1,1,.76,1.91,1.76S190.49,480.86,190.76,480.8Z" transform="translate(-141.16 -113)"/><path class="cls-3" d="M194.85,462.36c.19.2,1.26-.56,2.77-1s2.81-.32,2.87-.59-1.36-.82-3.12-.33S194.65,462.2,194.85,462.36Z" transform="translate(-141.16 -113)"/><path class="cls-3" d="M194,455.6c0,.11,1.12-.08,2.67-.92a12.8,12.8,0,0,0,2.51-1.8,14.65,14.65,0,0,0,1.26-1.33,3.49,3.49,0,0,0,.59-.91,1.19,1.19,0,0,0-.34-1.42,1.52,1.52,0,0,0-1.35-.21,3.5,3.5,0,0,0-.95.47,10.18,10.18,0,0,0-1.47,1.13,9.67,9.67,0,0,0-1.92,2.46c-.86,1.56-.95,2.68-.84,2.7s.47-1,1.41-2.35a11.57,11.57,0,0,1,1.93-2.15,11,11,0,0,1,1.38-1c.52-.34,1-.5,1.22-.3s.11.11,0,.32a2.89,2.89,0,0,1-.44.66,15.93,15.93,0,0,1-1.14,1.28,15.6,15.6,0,0,1-2.25,1.86A20,20,0,0,0,194,455.6Z" transform="translate(-141.16 -113)"/><path class="cls-3" d="M194.45,455.86a4.61,4.61,0,0,0-.17-2.82,9.3,9.3,0,0,0-1.35-2.81,9.89,9.89,0,0,0-1.23-1.39,2.35,2.35,0,0,0-2.16-.78,1.32,1.32,0,0,0-.87,1.13,4,4,0,0,0,.06,1.07,6.07,6.07,0,0,0,.61,1.8,6.47,6.47,0,0,0,2.07,2.38c1.51,1,2.7,1,2.69.88s-1-.36-2.28-1.42a6.55,6.55,0,0,1-1.69-2.23,5.56,5.56,0,0,1-.47-1.56c-.11-.59,0-1.12.18-1.14a1.63,1.63,0,0,1,1.23.56,9.77,9.77,0,0,1,2.57,3.72C194.24,454.8,194.29,455.87,194.45,455.86Z" transform="translate(-141.16 -113)"/><path class="cls-3" d="M201,330.43s-20.92-18.55-30.1-18.39-39.3-1.85-26.67,39.87C157,394,179.74,458.31,180.36,456l39.23-17.25-15.94-59.83s53.48.6,63.81-.76,29.64-15,29.64-15L294,438.82l41-2.29s5.75-90.82,7.41-109.48c1.44-16.26-16.82-34.5-35.44-30.38-12.17,2.69-55.65,33.39-55.65,33.39Z" transform="translate(-141.16 -113)"/><path class="cls-5" d="M298.51,323a11.6,11.6,0,0,1-.05,2c-.07,1.39-.16,3.2-.28,5.38-.21,4.54-.35,10.83-.46,17.77s-.24,13.25-.48,17.8c-.12,2.28-.25,4.12-.37,5.39a12.61,12.61,0,0,1-.26,2,10.45,10.45,0,0,1,0-2c0-1.4.09-3.21.15-5.39.07-4.67.17-10.9.28-17.79s.33-13.24.67-17.79c.16-2.27.33-4.11.49-5.38A10.79,10.79,0,0,1,298.51,323Z" transform="translate(-141.16 -113)"/><path class="cls-5" d="M296.85,358.41a8.26,8.26,0,0,1-1.81-2.18,24.37,24.37,0,0,1-4-13,8.74,8.74,0,0,1,.25-2.83c.23,0-.09,4.36,1.51,9.38S297,358.28,296.85,358.41Z" transform="translate(-141.16 -113)"/><path class="cls-5" d="M241.05,373.73c-.06,0-.15-1-.46-2.88a38,38,0,0,0-2.16-7.62,38.66,38.66,0,0,0-5.92-10.07,37.39,37.39,0,0,0-11-9.1c-8.9-5.16-16.72-10.2-22.19-14.15-2.73-2-4.87-3.66-6.29-4.9-.73-.61-1.25-1.12-1.62-1.46a3.55,3.55,0,0,1-.52-.55s.83.64,2.31,1.8,3.65,2.79,6.41,4.71c5.51,3.83,13.36,8.81,22.24,13.95a37.05,37.05,0,0,1,11.12,9.3,38.24,38.24,0,0,1,5.89,10.3,33.65,33.65,0,0,1,2,7.74c.16.94.15,1.68.2,2.17A2.51,2.51,0,0,1,241.05,373.73Z" transform="translate(-141.16 -113)"/><path class="cls-5" d="M255.52,329.43a8.84,8.84,0,0,1-.68,1.75c-.49,1.1-1.15,2.72-1.9,4.73a85,85,0,0,0-5.43,33c.07,2.15.17,3.89.28,5.09a11,11,0,0,1,.09,1.88,9.35,9.35,0,0,1-.35-1.85c-.19-1.19-.38-2.94-.51-5.1a76.58,76.58,0,0,1,5.46-33.15c.82-2,1.55-3.6,2.12-4.67A9.72,9.72,0,0,1,255.52,329.43Z" transform="translate(-141.16 -113)"/><path class="cls-5" d="M176.87,324a3.53,3.53,0,0,1,.56.37l1.58,1.15,1.13.83c.4.32.8.72,1.25,1.12a30.64,30.64,0,0,1,2.91,2.85l1.59,1.77c.51.64,1,1.34,1.55,2.05l.81,1.09c.26.38.5.78.75,1.18.5.8,1,1.62,1.54,2.48a76,76,0,0,1,5.27,11.88c1.54,4.34,2.71,8.57,3.76,12.42s2,7.3,2.73,10.23,1.44,5.26,1.92,6.87c.22.77.4,1.39.53,1.87a2.69,2.69,0,0,1,.15.66,4.13,4.13,0,0,1-.24-.63c-.16-.47-.36-1.08-.62-1.84-.54-1.6-1.23-3.94-2.07-6.84l-2.83-10.2c-1.07-3.84-2.25-8.06-3.79-12.38a77.5,77.5,0,0,0-5.2-11.82c-.49-.86-1-1.67-1.5-2.47-.25-.4-.49-.8-.74-1.18l-.8-1.08c-.52-.71-1-1.41-1.51-2.06L184,330.54a29.94,29.94,0,0,0-2.84-2.88c-.43-.41-.82-.81-1.21-1.14l-1.1-.86-1.51-1.22A3.27,3.27,0,0,1,176.87,324Z" transform="translate(-141.16 -113)"/><path class="cls-11" d="M200.54,330.05c7.47,4.93,15.69,6.09,24.47,7.77,5.07,1,10.37,1.85,15.32.39C250.94,335.07,261.2,323,268,318.69l-28.45,7.21Z" transform="translate(-141.16 -113)"/></g></svg>