<svg xmlns="http://www.w3.org/2000/svg" xmlns:xlink="http://www.w3.org/1999/xlink" width="735.628" height="751.978" viewBox="0 0 735.628 751.978"><defs><linearGradient id="a" x1="0.905" y1="0.819" x2="0.025" y2="0.4" gradientUnits="objectBoundingBox"><stop offset="0" stop-color="#f7ce68"/><stop offset="1" stop-color="#fbab7e"/></linearGradient></defs><g transform="translate(127.194 -505.498)"><path d="M.5,313S454,71.5,428,420.5c-10,133.79,46,185.07,113.71,132.16,39.34-30.76,94.84-30.62,133.52,1C757,620.43,766.82,750.93,640,770.5c-162,25-639.5,0-639.5,0Z" transform="translate(-127.694 273.887)" fill="#fffbdf"/><path d="M.5,313S454,71.5,428,420.5c-10,133.79,46,185.07,113.71,132.16,39.34-30.76,94.84-30.62,133.52,1C757,620.43,766.82,750.93,640,770.5c-162,25-639.5,0-639.5,0Z" transform="translate(-127.694 273.887)" fill="url(#a)"/><g transform="translate(-81.265 686)"><path d="M0,64.4c0-9.21,31.36-23.62,48.51-23.62,33.83,0,23.27,11.81,44.55,11.81C117.31,52.59,122.85,0,159.75,0c40.33,0,34,51.44,58.75,51.44,10.66,0,16-5,31.15-5,8.79,0,18.41,8.78,18.41,18Z" fill="#fff"/></g><g transform="translate(160.416 583.211)"><path d="M0,64.4c0-9.21,31.36-23.62,48.51-23.62,33.83,0,23.27,11.81,44.55,11.81C117.31,52.59,122.85,0,159.75,0c40.33,0,34,51.44,58.75,51.44,10.66,0,16-5,31.15-5,8.79,0,18.41,8.78,18.41,18Z" fill="#fff"/></g><g transform="translate(52.765 583.211)"><path d="M214.7,121.124l54.022-14.564s-.724-2.142-1.951-5.741-2.958-8.656-4.97-14.486S257.5,73.9,255.145,67.205s-4.77-13.476-7.024-19.664a76.248,76.248,0,0,0-6.78-14.119,66.156,66.156,0,0,0-7.7-10.15,68.517,68.517,0,0,0-7.521-6.98c-2.355-1.888-4.5-3.38-6.242-4.612A21.048,21.048,0,0,0,210.4,7.924c-3.194-.443-7.774-1.059-13.118-1.755s-11.454-1.475-17.706-2.242S166.928,2.4,161.012,1.748,149.658.54,145.322.181A102.674,102.674,0,0,0,125.929,1c-7.214.855-14.823,2.162-21.761,3.524S90.96,7.3,86.426,8.379s-7.334,1.813-7.334,1.813-2.456,1.362-6.347,3.542-9.216,5.179-14.954,8.453-11.89,6.821-17.433,10.1-10.477,6.289-13.782,8.486a18.32,18.32,0,0,0-7.087,8.859c-.616,1.648-1.271,3.591-1.967,5.808s-1.431,4.707-2.206,7.449-1.59,5.735-2.445,8.957-1.75,6.674-2.684,10.333L0,122.364l46.066-1.4c2.321,7.047,4.6,13.915,6.71,20.253s4.056,12.145,5.71,17.072,3.019,8.972,3.969,11.787,1.488,4.4,1.488,4.4L55.6,226.314s3.932,1.575,10.083,3.909,14.52,5.428,23.393,8.467,18.251,6.022,26.419,8.135,15.127,3.355,19.162,2.912,11.616-2.536,20.718-5.426,19.724-6.578,29.842-10.21,19.732-7.209,26.816-9.878,11.639-4.429,11.639-4.429-.522-5.14-1.3-12.888-1.825-18.1-2.869-28.532-2.086-20.933-2.869-28.977-1.3-13.63-1.3-14.224c-.013-.235-.039-.784-.074-1.587s-.082-1.861-.136-3.112-.117-2.7-.186-4.275S214.785,122.909,214.7,121.124Z" transform="translate(31.569 150.68)" fill="#e930f2"/><g transform="translate(92.359 211.309)" opacity="0.3"><path d="M100.779,5.675A16.635,16.635,0,0,0,86.056.147,33.363,33.363,0,0,0,71.031,6.331a75.556,75.556,0,0,0-9.759,7.937,100.026,100.026,0,0,0-8.515,9.3C50.1,26.847,47.6,30.281,45.216,33.8s-4.646,7.112-6.839,10.717q-5.736,9.424-11.01,19.106t-10.077,19.6q-4.8,9.918-9.128,20.06T0,123.765l.372,7.087a22.774,22.774,0,0,0,7.878-2.521,27.873,27.873,0,0,0,6.509-4.888,41.336,41.336,0,0,0,5.287-6.552,63.283,63.283,0,0,0,4.21-7.514,82.21,82.21,0,0,0,3.269-7.962c.966-2.71,1.835-5.465,2.686-8.23s1.686-5.541,2.583-8.293,1.857-5.481,2.96-8.152a84.084,84.084,0,0,1,45.34-45.322,21.7,21.7,0,0,0,18.621-6.7,16.159,16.159,0,0,0,2.645-4.454,16.868,16.868,0,0,0,1.149-5.037,15.121,15.121,0,0,0-.483-5.053A12.717,12.717,0,0,0,100.779,5.675Z"/></g><path d="M5.953,66.9a15.208,15.208,0,0,1-.407-2.622c-.2-1.689-.469-4.133-.778-7.154s-.662-6.619-1.04-10.615S2.945,38.12,2.533,33.5s-.79-9.016-1.12-13.021S.8,12.869.573,9.836.183,4.346.089,2.646A14.842,14.842,0,0,1,.035,0,14.927,14.927,0,0,1,.442,2.615c.2,1.688.469,4.133.778,7.156S1.881,16.4,2.26,20.4s.783,8.4,1.195,13.02.79,9.022,1.12,13.026.615,7.611.84,10.641.39,5.483.484,7.179A14.781,14.781,0,0,1,5.953,66.9Z" transform="translate(240.836 213.848)" fill="#263238"/><path d="M0,0Q.116.28.216.566T.4,1.142q.084.291.153.585t.121.593c.1.443.21.9.325,1.388s.236.989.363,1.52.261,1.086.4,1.669.284,1.195.435,1.837c.31,1.351.646,2.833,1,4.426s.734,3.3,1.128,5.1.805,3.687,1.228,5.65.858,4,1.3,6.09.872,4.124,1.282,6.083.8,3.844,1.174,5.638.72,3.5,1.045,5.093.623,3.084.893,4.448q.186.97.355,1.863t.322,1.7q.153.811.289,1.537l.256,1.364q.068.295.122.592t.1.6q.042.3.071.6t.046.6q-.116-.28-.218-.566t-.188-.576q-.086-.291-.158-.585t-.127-.593q-.146-.631-.315-1.348t-.358-1.518l-.4-1.684q-.208-.883-.435-1.847c-.31-1.355-.646-2.84-1-4.436s-.734-3.3-1.128-5.1-.805-3.686-1.228-5.647-.858-3.994-1.3-6.08-.871-4.117-1.282-6.075-.8-3.843-1.174-5.638-.72-3.5-1.045-5.1-.623-3.087-.893-4.451q-.186-.97-.355-1.86t-.322-1.7Q.729,4.509.592,3.781T.337,2.41q-.072-.3-.129-.6t-.1-.6Q.066.912.039.608T0,0Z" transform="translate(65.233 213.848)" fill="#263238"/><path d="M4.155,0c.066.022.02.413-.1,1.1s-.326,1.684-.569,2.908S2.953,6.7,2.66,8.317s-.591,3.408-.862,5.29-.486,3.682-.662,5.322S.824,22.05.714,23.295s-.2,2.253-.27,2.95-.137,1.081-.2,1.076q-.09-.5-.147-1.008T.014,25.3Q-.008,24.79,0,24.281t.058-1.017q.031-1.228.1-2.454t.172-2.449q.1-1.223.245-2.443T.9,13.483q.173-1.216.382-2.426t.452-2.413q.244-1.2.523-2.4t.593-2.383q.1-.5.238-.995t.3-.977q.164-.484.358-.957T4.155,0Z" transform="translate(234.394 159.242)" fill="#263238"/><path d="M47.98,13.8a74.113,74.113,0,0,0,1.944,7.714c1.265,4.6,3,10.719,4.743,16.834S58.174,50.576,59.5,55.157s2.213,7.635,2.213,7.635l-41.779-3.4L0,83.823l71.19,26.222s2.756-1.229,6.891-3.1,9.647-4.386,15.159-6.956,11.025-5.2,15.159-7.292,6.891-3.66,6.891-4.107-.991-6.208-2.478-14.6-3.469-19.407-5.451-30.369S103.4,21.756,101.91,13.59,99.433,0,99.433,0Z" transform="translate(198.294 258.001)" fill="#ffd2bc"/><path d="M73.866,10.2a2.976,2.976,0,0,0,2.073-1.081,3.543,3.543,0,0,0,.9-2.675,3.436,3.436,0,0,0-2.427-2.817,4.659,4.659,0,0,0-4.624.833,6.823,6.823,0,0,0-1.772,2.232q-.086.17-.164.344t-.146.351q-.069.177-.129.358t-.11.364c-.031.124-.064.25-.092.375a2.755,2.755,0,0,0-.061.365,1.1,1.1,0,0,0,.016.332.6.6,0,0,0,.137.275,1.116,1.116,0,0,0,1.223.319,2.285,2.285,0,0,0,1.24-.868,3.543,3.543,0,0,0,.5-3.154,4.624,4.624,0,0,0-6.272-2.073,8.434,8.434,0,0,0-3.172,2.5,3.544,3.544,0,0,0-.8,1.772,1.151,1.151,0,0,0,.868,1.293,2.179,2.179,0,0,0,1.772-.6,2.835,2.835,0,0,0,.8-1.772,4.287,4.287,0,0,0-1.86-3.756,5.421,5.421,0,0,0-4.429-.567A5.208,5.208,0,0,0,53.792,5.4a2.693,2.693,0,0,0-.106,2.179,1.771,1.771,0,0,0,1.772.974,2.533,2.533,0,0,0,1.931-1.063A2.569,2.569,0,0,0,57.6,5.254a3.772,3.772,0,0,0-3.916-2.463,7.441,7.441,0,0,0-4.748,2.232q-.249.23-.484.473t-.457.5q-.222.255-.43.522t-.4.545a2.639,2.639,0,0,0-.514,2.3,1.329,1.329,0,0,0,1.9.478,2.143,2.143,0,0,0,1.081-2.037,5.81,5.81,0,0,0-2.782-4.553,5.953,5.953,0,0,0-5.439-.425,5.811,5.811,0,0,0-2.3,1.648,3.348,3.348,0,0,0-.815,2.5,1.572,1.572,0,0,0,.584,1.059,2.376,2.376,0,0,0,1.167.489A2.741,2.741,0,0,0,41.35,8.4a1.972,1.972,0,0,0,1.013-.785,3.541,3.541,0,0,0-1.223-4.784,6.307,6.307,0,0,0-5.563-.3q-.347.134-.688.284t-.673.317q-.333.166-.657.348t-.64.38a6.521,6.521,0,0,0-2.091,1.878,2.285,2.285,0,0,0-.159,2.392,1.311,1.311,0,0,0,1.878.62,2.09,2.09,0,0,0,.939-2.091,4.5,4.5,0,0,0-1.063-2.41,5.421,5.421,0,0,0-4.748-1.949,5.314,5.314,0,0,0-4.164,2.782,2.781,2.781,0,0,0-.16,2.3,1.629,1.629,0,0,0,1.772.868A2.232,2.232,0,0,0,26.9,6.972a2.923,2.923,0,0,0,0-2.286A4.89,4.89,0,0,0,23.122,1.94a10.206,10.206,0,0,0-4.855.142,4.181,4.181,0,0,0-3.1,2.977A3.081,3.081,0,0,0,16.938,8.6a2.585,2.585,0,0,0,3.012-2.02,4.27,4.27,0,0,0-1.116-3.756,6.644,6.644,0,0,0-3.4-2.038A7.813,7.813,0,0,0,8.345,2.561,5.634,5.634,0,0,0,6.573,5.484a2.869,2.869,0,0,0,.9,2.817,1.894,1.894,0,0,0,2.569,0,2.71,2.71,0,0,0,.868-2.445A5.315,5.315,0,0,0,8.079,2.029,5.758,5.758,0,0,0,4.2,1.444,6.023,6.023,0,0,0,1.559,2.72q-.226.207-.438.428t-.407.457q-.2.235-.374.484T0,4.6q.024-.075.052-.148t.062-.144q.033-.071.071-.14t.081-.135q.114-.205.245-.4t.278-.377Q.935,3.073,1.1,2.9t.338-.325A6.042,6.042,0,0,1,4.128,1.161a5.952,5.952,0,0,1,4.111.532,5.687,5.687,0,0,1,3.136,4.093,3.207,3.207,0,0,1-.992,2.888,2.443,2.443,0,0,1-3.242.142A3.419,3.419,0,0,1,6.006,5.466a6.183,6.183,0,0,1,1.878-3.26A8.344,8.344,0,0,1,15.521.239a7.088,7.088,0,0,1,3.792,2.233A4.889,4.889,0,0,1,20.588,6.9a3.72,3.72,0,0,1-1.4,2.055,2.8,2.8,0,0,1-2.534.5,3.135,3.135,0,0,1-1.931-1.772,4.536,4.536,0,0,1-.354-2.6,4.942,4.942,0,0,1,3.65-3.544,10.86,10.86,0,0,1,5.315-.195A5.758,5.758,0,0,1,27.746,4.58a3.809,3.809,0,0,1,0,2.959,3.118,3.118,0,0,1-2.427,1.772,2.6,2.6,0,0,1-2.8-1.347,3.631,3.631,0,0,1,.142-3.1,6.253,6.253,0,0,1,4.89-3.313,6.342,6.342,0,0,1,5.563,2.268,5.439,5.439,0,0,1,1.293,2.906,3.011,3.011,0,0,1-1.417,3.012,2.251,2.251,0,0,1-1.772.213,2.392,2.392,0,0,1-1.364-1.187A3.312,3.312,0,0,1,30.049,5.4a7.618,7.618,0,0,1,2.41-2.179q.333-.213.677-.408t.7-.373q.353-.177.714-.337t.731-.3a7.228,7.228,0,0,1,6.432.39,4.429,4.429,0,0,1,1.471,6.166,3.313,3.313,0,0,1-3.242,1.311,3.208,3.208,0,0,1-1.665-.726,2.8,2.8,0,0,1-.9-1.63,4.287,4.287,0,0,1,1.028-3.278,6.977,6.977,0,0,1,8.983-1.4A6.608,6.608,0,0,1,50.6,7.947a3.082,3.082,0,0,1-1.612,2.888,2.586,2.586,0,0,1-1.772.23A2.144,2.144,0,0,1,45.8,9.9a3.543,3.543,0,0,1,.585-3.189q.219-.308.455-.6t.489-.574q.253-.28.522-.544t.553-.513a8.5,8.5,0,0,1,5.315-2.463,5.51,5.51,0,0,1,2.923.726,4.483,4.483,0,0,1,1.772,2.374,3.543,3.543,0,0,1-.337,3.012,3.437,3.437,0,0,1-2.622,1.453A2.728,2.728,0,0,1,52.87,8.088a3.543,3.543,0,0,1,.106-2.906A6.13,6.13,0,0,1,57.14,1.87a6.307,6.307,0,0,1,5.1.709,5.067,5.067,0,0,1,2.179,4.483,3.171,3.171,0,0,1-3.544,3.1,1.895,1.895,0,0,1-1.435-2.073,4.235,4.235,0,0,1,.975-2.179,9.124,9.124,0,0,1,3.544-2.693,5.311,5.311,0,0,1,7.087,2.5,4.11,4.11,0,0,1-.62,3.738A3.064,3.064,0,0,1,68.852,10.5a1.771,1.771,0,0,1-1.772-.567,2.3,2.3,0,0,1,0-1.772q.055-.195.119-.387t.137-.38q.073-.188.155-.373t.173-.366A7.371,7.371,0,0,1,69.56,4.3a5.1,5.1,0,0,1,5.067-.833A3.755,3.755,0,0,1,77.214,6.6a3.933,3.933,0,0,1-1.063,2.853,2.5,2.5,0,0,1-2.286.744Z" transform="translate(141.668 267.276)" fill="#263238"/><path d="M24.38,0,0,92.133l77.516,2.445,24.38-91Z" transform="translate(116.863 272.352)" fill="#455a64"/><path d="M27.693,0l-3.1.3L0,85.4l3.738,5.138Z" transform="translate(113.55 272.352)" fill="#e0e0e0"/><path d="M26.317,0H51.494a5.951,5.951,0,0,1,5.563,3.544,16.868,16.868,0,0,1,1.453,7.264,9.249,9.249,0,0,1,1.772,5.085q.088,1.724.132,3.45t.044,3.451q0,1.726-.044,3.451t-.132,3.45a1.236,1.236,0,0,1-.559.533,6.852,6.852,0,0,1-.987.465c-.348.136-.688.25-.941.329s-.419.125-.419.125a9.23,9.23,0,0,1,.23,6.768,7.087,7.087,0,0,1-3.632,3.632s-.212.484-.582,1.225-.9,1.739-1.533,2.768a19.815,19.815,0,0,1-2.168,2.951,5.875,5.875,0,0,1-2.485,1.773,11.231,11.231,0,0,1-2.476.411,15.943,15.943,0,0,1-2.275-.046c-.712-.061-1.371-.152-1.959-.228a12.739,12.739,0,0,0-1.529-.137,31.665,31.665,0,0,1-5.255-2.193c-2.8-1.316-6.379-3.07-9.9-4.824s-6.994-3.508-9.584-4.824-4.3-2.193-4.3-2.193v-3.1s-.606.061-1.518.069a19.22,19.22,0,0,1-3.357-.248,8.536,8.536,0,0,1-3.4-1.248A3.626,3.626,0,0,1,.006,28.775a4.361,4.361,0,0,1,.886-3.033,4.9,4.9,0,0,1,2.173-1.474,8.789,8.789,0,0,1,2.216-.474A8.236,8.236,0,0,1,6.3,23.761H21.055s-1.013.041-2.557.065-3.617.03-5.738-.04a50.341,50.341,0,0,1-6.02-.5c-1.732-.28-3.027-.694-3.4-1.3A11.884,11.884,0,0,1,2.25,19.663a9.467,9.467,0,0,1-.55-2.825,4.276,4.276,0,0,1,.662-2.553,3.831,3.831,0,0,1,2.551-1.509,53.959,53.959,0,0,1,6.367-.561c2.8-.135,6.062-.225,9.171-.283s6.064-.087,8.241-.1,3.577-.012,3.577-.012L44.5,13.839h1.931L44.921,8.523s-.8,0-2.037,0-2.9-.012-4.623-.029-3.508-.042-4.978-.079-2.629-.087-3.1-.154-1.058-.145-1.666-.279A7.882,7.882,0,0,1,26.7,7.37a3.856,3.856,0,0,1-1.462-1.2,3.438,3.438,0,0,1-.6-2.043,7.487,7.487,0,0,1,.263-2.08A4.271,4.271,0,0,1,25.475.79a2.764,2.764,0,0,1,.579-.622A1.4,1.4,0,0,1,26.317,0Z" transform="translate(166.255 295.881)" fill="#ffd2bc"/><path d="M32,2.1q-.583.1-1.171.173t-1.177.108q-.59.038-1.182.043t-1.183-.022c-.726,0-1.523,0-2.378,0s-1.768-.014-2.73-.033-1.97-.047-3.015-.089-2.127-.1-3.235-.174-2.188-.16-3.231-.25-2.049-.187-3.005-.286-1.865-.2-2.713-.306S5.342,1.054,4.624.952Q4.035.9,3.451.818T2.287.619Q1.708.5,1.136.357T0,.031Q.588,0,1.177,0T2.353.028q.588.029,1.173.087T4.7.262c.722.062,1.514.13,2.364.2s1.76.145,2.716.22,1.961.152,3,.227S14.9,1.059,16,1.13s2.179.135,3.219.194,2.042.112,3,.161,1.864.093,2.716.134l2.372.114q.59-.012,1.18.006T29.66,1.8q.588.047,1.173.122T32,2.1Z" transform="translate(174.73 319.043)" fill="#f9bea7"/><path d="M28.118,4.571q-.523.051-1.047.068t-1.048,0q-.524-.016-1.046-.064t-1.041-.13c-.647-.058-1.353-.127-2.11-.209s-1.564-.176-2.412-.282-1.737-.225-2.658-.355-1.873-.274-2.848-.429-1.923-.318-2.838-.484-1.8-.336-2.632-.506-1.631-.338-2.373-.5S4.633,1.356,4,1.2q-.518-.083-1.03-.2T1.962.737Q1.46.586.969.4T0,0Q.524.013,1.046.053T2.087.16q.519.067,1.034.16T4.146.532L14.068,2.3l9.94,1.541q.522.039,1.04.1t1.033.156q.514.091,1.024.208T28.118,4.571Z" transform="translate(176.307 330.166)" fill="#f9bea7"/><path d="M13.855,0s.023.007.066.023.105.043.184.083a3.015,3.015,0,0,1,.28.163,3.875,3.875,0,0,1,.355.262,6.022,6.022,0,0,1,1.541,6.874,6.413,6.413,0,0,1-4.341,3.668l.283-.691a7.92,7.92,0,0,1-3.632,11.3l.283-.319a15.519,15.519,0,0,1-.842,2.383,15.522,15.522,0,0,1-1.208,2.2A15.522,15.522,0,0,1,5.279,27.93a15.516,15.516,0,0,1-1.859,1.712q-.284.221-.58.426t-.6.394q-.306.189-.622.36t-.642.326q-.113.063-.232.116t-.241.1q-.122.042-.248.074T0,31.485c0-.031.079-.091.225-.188s.36-.231.63-.41.6-.4.969-.683.79-.611,1.241-1a15.822,15.822,0,0,0,1.676-1.713,15.83,15.83,0,0,0,1.391-1.935,15.818,15.818,0,0,0,1.084-2.122,15.825,15.825,0,0,0,.757-2.274v-.23l.23-.089a7.087,7.087,0,0,0,3.207-9.957l-.372-.567.656-.142a5.687,5.687,0,0,0,3.827-3.083,5.51,5.51,0,0,0,.266-3.969A8.152,8.152,0,0,0,13.855,0Z" transform="translate(211.654 315.69)" fill="#f9bea7"/><path d="M84.283,168.569l15.539-31.343-4.908-13.714a29.623,29.623,0,0,0,3.521-2.277,37.755,37.755,0,0,0,7.149-6.861,29.1,29.1,0,0,0,5.654-11.492,29.907,29.907,0,0,0-.963-16.17c-.961-2.981-2.3-6.712-3.918-10.968s-3.506-9.037-5.566-14.119S96.5,51.162,94.209,45.7s-4.651-10.993-6.968-16.379A48.318,48.318,0,0,0,27.373,2.535L25,3.332A40.158,40.158,0,0,0,9.813,13.769,37.758,37.758,0,0,0,1.675,28.744,47.669,47.669,0,0,0,.265,46.476a62.713,62.713,0,0,0,5,18.709L36.8,157.318Z" transform="translate(81.943 27.349)" fill="#ffd2bc"/><path d="M35.135,0a60.326,60.326,0,0,1-8.611,2.4A60.329,60.329,0,0,1,17.7,3.5,60.332,60.332,0,0,1,8.81,3.3,60.323,60.323,0,0,1,0,1.772a19.572,19.572,0,0,0,2.487,2.2A29.774,29.774,0,0,0,9.743,8.037a31.1,31.1,0,0,0,11.717,2.1A40.4,40.4,0,0,0,37.332,6.449Z" transform="translate(141.721 150.826)" fill="#654742"/><path d="M7.082,2.238a3.7,3.7,0,0,1-2.2,4.7A3.544,3.544,0,0,1,.207,4.984,3.718,3.718,0,0,1,2.387.289a3.544,3.544,0,0,1,4.7,1.949Z" transform="translate(162.988 73.943)" fill="#263238"/><path d="M13.989,1.834c-.071.151-.328.2-.733.2S12.3,2,11.63,1.989a17.823,17.823,0,0,0-2.293.079A12.94,12.94,0,0,0,6.6,2.649,13.238,13.238,0,0,0,4.045,3.822,18.642,18.642,0,0,0,2.129,5.134c-.535.412-.967.774-1.3,1.013s-.57.355-.712.276A.29.29,0,0,1,0,6.169a1.592,1.592,0,0,1,.077-.517,4.144,4.144,0,0,1,.3-.729,7.017,7.017,0,0,1,.553-.892,10.134,10.134,0,0,1,5-3.544,9.656,9.656,0,0,1,6.06,0A5.19,5.19,0,0,1,12.91.8a3.279,3.279,0,0,1,.643.372,1.5,1.5,0,0,1,.36.369A.386.386,0,0,1,13.989,1.834Z" transform="translate(154.008 67.259)" fill="#263238"/><path d="M7.082,2.238a3.718,3.718,0,0,1-2.2,4.7A3.543,3.543,0,0,1,.207,4.984,3.718,3.718,0,0,1,2.387.289a3.544,3.544,0,0,1,4.7,1.949Z" transform="translate(128.208 85.442)" fill="#263238"/><path d="M13.441,1.429c-.053.159-.307.239-.714.294s-.967.086-1.634.146A19.237,19.237,0,0,0,8.822,2.2a13.126,13.126,0,0,0-2.627.842A12.554,12.554,0,0,0,3.811,4.454,18.6,18.6,0,0,0,2.044,5.969c-.492.472-.889.885-1.2,1.163s-.539.422-.69.356c-.071-.027-.12-.107-.141-.235a1.581,1.581,0,0,1,.024-.518,4.327,4.327,0,0,1,.22-.757A7.559,7.559,0,0,1,.7,5.025,10.134,10.134,0,0,1,5.274.915,9.727,9.727,0,0,1,11.3.188a6.709,6.709,0,0,1,.985.3,3.958,3.958,0,0,1,.691.344,1.533,1.533,0,0,1,.389.334A.291.291,0,0,1,13.441,1.429Z" transform="translate(117.773 78.827)" fill="#263238"/><path d="M12.278,30.927q.668-.484,1.364-.926t1.417-.839q.721-.4,1.466-.749t1.511-.658c.235-.106.463-.217.673-.335a3.861,3.861,0,0,0,.565-.376,1.71,1.71,0,0,0,.389-.433.969.969,0,0,0,.145-.5,5.315,5.315,0,0,0-1.612-2.64L12.88,17.089c-1.869-2.286-3.631-4.477-5.217-6.483S4.669,6.778,3.505,5.234,1.423,2.42.819,1.519-.076.084.017.009.577.325,1.342,1.1,3.17,3.017,4.453,4.461,7.241,7.642,8.89,9.587s3.441,4.1,5.3,6.368l5.227,6.467a5.953,5.953,0,0,1,1.772,3.544A2.533,2.533,0,0,1,20.074,27.9q-.18.125-.368.237t-.384.209q-.2.1-.4.181t-.41.152q-.739.383-1.5.715t-1.543.615q-.781.282-1.58.512t-1.612.408Z" transform="translate(141.952 76.171)" fill="#263238"/><path d="M16.722,1.172c0,.288-.248.554-.687.822a12.4,12.4,0,0,1-1.829.837c-.762.3-1.657.623-2.627,1S9.564,4.636,8.5,5.14,6.442,6.176,5.533,6.676,3.8,7.646,3.082,8.031a11.954,11.954,0,0,1-1.824.84C.767,9.027.4,9.043.174,8.861A.576.576,0,0,1,0,8.448a1.936,1.936,0,0,1,.1-.674A4.89,4.89,0,0,1,.49,6.89a8.769,8.769,0,0,1,.676-1.041A15.944,15.944,0,0,1,13.781,0a8.872,8.872,0,0,1,1.237.153,4.912,4.912,0,0,1,.925.272,1.915,1.915,0,0,1,.579.352A.555.555,0,0,1,16.722,1.172Z" transform="translate(109.354 65.902)" fill="#263238"/><path d="M13.147,2.3a1.2,1.2,0,0,1-.718.638,8,8,0,0,1-1.452.425c-.582.128-1.251.255-1.971.412s-1.489.345-2.273.6-1.526.537-2.212.81-1.316.534-1.876.74a7.069,7.069,0,0,1-1.458.408,1.2,1.2,0,0,1-.956-.187.643.643,0,0,1-.21-.379A1.451,1.451,0,0,1,.04,5.191a3.2,3.2,0,0,1,.265-.738A5.674,5.674,0,0,1,.833,3.6,9.231,9.231,0,0,1,5.564.443a9.355,9.355,0,0,1,5.687,0A5.522,5.522,0,0,1,12.16.92a3.508,3.508,0,0,1,.623.512,1.641,1.641,0,0,1,.331.483A.534.534,0,0,1,13.147,2.3Z" transform="translate(150.279 56.585)" fill="#263238"/><path d="M13.688,0a19.391,19.391,0,0,0-3.009.365,18.192,18.192,0,0,0-5.69,2.051A9.709,9.709,0,0,0,.547,7.587c-.836,2.4-.808,5.564.738,9.724s3.671,6.676,5.986,8.1A11.5,11.5,0,0,0,14.4,26.987a17.917,17.917,0,0,0,5.94-1.641,6.681,6.681,0,0,0,2.418-1.533c-.04-.124-.627-1.674-1.485-3.93s-1.987-5.217-3.111-8.162-2.243-5.876-3.081-8.069Z" transform="translate(81.666 110.075)" fill="#ffd2bc"/><path d="M10.4,12.148c-.022,0-.047.02-.077.056s-.067.089-.113.154-.1.143-.173.231a3.575,3.575,0,0,1-.256.285,3.136,3.136,0,0,1-2.144.85,3.686,3.686,0,0,1-1.569-.4,6.754,6.754,0,0,1-1.591-1.093,9.667,9.667,0,0,1-1.441-1.651,10.619,10.619,0,0,1-1.121-2.07A10.258,10.258,0,0,1,1.19,4.068a3.543,3.543,0,0,1,1.347-3.03,1.541,1.541,0,0,1,2,.159,1.607,1.607,0,0,1,.24.273,1.684,1.684,0,0,1,.137.238c.033.07.056.128.077.169s.038.064.06.064.049-.025.07-.074a.546.546,0,0,0,.038-.21,1.105,1.105,0,0,0-.051-.329A1.866,1.866,0,0,0,4.911.9,1.771,1.771,0,0,0,3.883.1,2.409,2.409,0,0,0,2.112.259a4.323,4.323,0,0,0-2.055,3.7A10.471,10.471,0,0,0,.765,8.976a11.317,11.317,0,0,0,1.279,2.3A9.867,9.867,0,0,0,3.728,13.1a7.049,7.049,0,0,0,1.93,1.163,4.639,4.639,0,0,0,2.016.329,3.277,3.277,0,0,0,2.481-1.435,3.9,3.9,0,0,0,.143-.409,3.112,3.112,0,0,0,.074-.315c.016-.087.023-.157.027-.205S10.4,12.152,10.4,12.148Z" transform="translate(86.722 117.328)" fill="#f9bea7"/><path d="M.23.011C.381-.051.58.158.864.534s.654.919,1.144,1.523a12.793,12.793,0,0,0,1.872,1.9A10.429,10.429,0,0,0,6.7,5.592,11.116,11.116,0,0,0,9.954,6.3a15,15,0,0,0,2.812-.086c.824-.1,1.515-.231,2.014-.306s.807-.089.865.053c.035.062.009.164-.079.292a2.216,2.216,0,0,1-.45.448,5.481,5.481,0,0,1-.819.521,8.653,8.653,0,0,1-1.186.511,10.876,10.876,0,0,1-1.826.485,10.879,10.879,0,0,1-1.868.162,10.879,10.879,0,0,1-1.868-.162,10.877,10.877,0,0,1-1.826-.485,9.389,9.389,0,0,1-1.622-.8A9.393,9.393,0,0,1,2.673,5.855a9.39,9.39,0,0,1-1.2-1.334A9.39,9.39,0,0,1,.549,2.97a7.3,7.3,0,0,1-.4-1.138A4.7,4.7,0,0,1,0,.926,2.1,2.1,0,0,1,.051.3.425.425,0,0,1,.23.011Z" transform="translate(143.759 113.377)" fill="#263238"/><path d="M114.363,20.3a10.275,10.275,0,0,0-8.009-5.617q-.12-.348-.257-.69t-.29-.677q-.153-.335-.322-.662t-.353-.646a13.158,13.158,0,0,0-15.5-5.741A12.774,12.774,0,0,0,67.056,7.382,15.3,15.3,0,0,0,50.809,10.5a3.863,3.863,0,0,0-1.169,1.772,1.772,1.772,0,0,0,.266,1.382,9.531,9.531,0,0,0-8.7-1.772q-.378.115-.744.262t-.717.325q-.351.178-.686.386t-.652.445a10.843,10.843,0,0,0-5.723,5.829,15.4,15.4,0,0,0-15.1,13.8,14.613,14.613,0,0,0-9,13.643A10.63,10.63,0,0,0,6.408,64.965a14.591,14.591,0,0,0-1.6,1.186,16.117,16.117,0,0,0-3.019,3.321A10.068,10.068,0,0,0,.01,74.57,10.423,10.423,0,0,0,2.12,81.088a5.809,5.809,0,0,0,3.023,2.281,8.044,8.044,0,0,0,3.369.284,12.914,12.914,0,0,0,2.737-.626,10.87,10.87,0,0,0,1.13-.45l20.446,30.935c-.022.058.188.3.544.61a9.136,9.136,0,0,0,1.416,1,5.28,5.28,0,0,0,1.765.67,1.9,1.9,0,0,0,1.59-.386,5.629,5.629,0,0,0,1.1-1.311,8.375,8.375,0,0,0,.73-1.552,17.089,17.089,0,0,0,.5-1.688c.142-.574.269-1.153.4-1.72q.315-.947.554-1.915t.4-1.95q.162-.982.247-1.975t.091-1.991a6.146,6.146,0,0,0-4.536-5.829,9.229,9.229,0,0,0,3.012-8.717q-.238-1.189-.582-2.35t-.788-2.283q-.445-1.123-.989-2.2T37.1,77.81L30.239,65.284A17.8,17.8,0,0,0,41.56,50.862a10.152,10.152,0,0,0,12.81-8.115,13.208,13.208,0,0,0,17.842,2.64,3.55,3.55,0,0,0,1.5,2.314,9.87,9.87,0,0,0,3.081,1.464,20.465,20.465,0,0,0,3.682.726,20.152,20.152,0,0,0,3.305.1,7.592,7.592,0,0,0,2.7-.737,13.324,13.324,0,0,0,2.3-1.4,17.741,17.741,0,0,0,1.607-1.353c.385-.366.6-.607.6-.607q.943.193,1.9.3t1.913.126q.958.02,1.917-.046t1.909-.22h0L99,45.954a8.548,8.548,0,0,0,3.35-1.649A12.931,12.931,0,0,0,105,41.411a18.494,18.494,0,0,0,1.9-3.608,19.949,19.949,0,0,0,1.087-3.792q.479-.111.943-.27t.909-.361q.445-.2.869-.449t.822-.534a10.2,10.2,0,0,0,2.835-12.1Z" transform="translate(60.898)" fill="#263238"/><path d="M14.684,46.35s-.673,2.436-1.721,6.241S10.494,61.567,9,67.04,5.932,78.285,4.585,83.29,2.117,92.532,1.519,94.932a55.692,55.692,0,0,0-1.293,9.1,93.928,93.928,0,0,0-.111,11.157,62.715,62.715,0,0,0,1.344,10.585,18.56,18.56,0,0,0,3.072,7.389,19.945,19.945,0,0,0,5.9,4.443,58.745,58.745,0,0,0,7.739,3.384c2.57.932,4.973,1.66,6.733,2.154s2.877.756,2.877.756,2.188-1.069,5.657-3,8.217-4.718,13.339-8.16a134.13,134.13,0,0,0,15.575-12.074,63.5,63.5,0,0,0,12.364-14.738c2.981-5.218,7.253-12.676,11.985-20.928s9.922-17.3,14.74-25.692,9.264-16.135,12.5-21.779l5.277-9.188L108.889,0,54.62,51.825l.567-6.733Z" transform="translate(22.396 226.499)" fill="#ffd2bc"/><path d="M2.131.417h0A3.809,3.809,0,0,1,7.269,2.1L38.506,64.308l-8.026,3.544L.359,5.449A3.806,3.806,0,0,1,2.131.417Z" transform="translate(148.325 136.783)" fill="#455a64"/><path d="M0,30.12,29.217,0H57.211l17.93,23.653s-.532.1-1.376.178a20.6,20.6,0,0,1-3.257.048,12.709,12.709,0,0,1-3.828-.809,6.536,6.536,0,0,1-3.091-2.394l-3.88-5.617s.247.542.583,1.42a34.649,34.649,0,0,1,1.12,3.443,20.61,20.61,0,0,1,.711,4.241,7.678,7.678,0,0,1-.643,3.812s-.262.619-.667,1.564-.95,2.216-1.517,3.521-1.155,2.642-1.643,3.72-.877,1.9-1.045,2.162a12.661,12.661,0,0,1-.937,1.337,4.108,4.108,0,0,1-1.108.962,3.877,3.877,0,0,1-1.556.477,8.6,8.6,0,0,1-2.282-.118,15.96,15.96,0,0,1-2.987-.842,18.964,18.964,0,0,1-2.967-1.426A9,9,0,0,1,42.6,37.615a1.924,1.924,0,0,1-.595-1.719,3.543,3.543,0,0,1,2.746-2.427l-8.522-1.223s-.536.971-1.421,2.485S32.694,38.3,31.3,40.472s-2.952,4.455-4.484,6.425a23.328,23.328,0,0,1-4.331,4.538q-1.2.849-2.451,1.609t-2.557,1.426q-1.3.666-2.653,1.237T12.084,56.75Z" transform="translate(129.549 198.221)" fill="#ffd2bc"/><path d="M35.081,0c0,.035-.148.132-.429.29s-.693.38-1.221.664S32.259,1.587,31.516,2,29.93,2.892,29,3.437a82.919,82.919,0,0,0-24.894,22.2C3.468,26.5,2.9,27.284,2.4,27.981s-.915,1.3-1.259,1.8-.613.88-.8,1.135-.305.382-.341.36q.078-.222.17-.439t.2-.428q.1-.211.221-.415t.246-.4q.219-.4.5-.875t.63-1.023q.345-.546.75-1.159t.863-1.284A73.191,73.191,0,0,1,28.685,2.87q.561-.31,1.129-.6t1.145-.574q.576-.279,1.159-.543T33.292.638q.21-.113.428-.21t.442-.177q.224-.08.454-.143T35.081,0Z" transform="translate(43.033 277.473)" fill="#654742"/><path d="M0,1.805q.5-.15,1.01-.269t1.024-.208q.515-.089,1.034-.147T4.111,1.1C4.744,1.021,5.439.941,6.187.859S7.735.691,8.578.6,10.306.431,11.224.344s1.87-.173,2.844-.257q.366-.043.734-.065T15.539,0q.368,0,.736.022t.734.065a6.485,6.485,0,0,1,2.64,1.063,9.232,9.232,0,0,1,2.959,3.544q.248.464.455.947t.371.981q.164.5.286,1.009t.2,1.032c-.04,0-.1-.092-.192-.264s-.207-.425-.358-.746-.334-.711-.557-1.158-.484-.951-.79-1.5a9.143,9.143,0,0,0-2.853-3.172A5.316,5.316,0,0,0,16.885.955Q16.543.915,16.2.9t-.687-.02q-.344,0-.687.02t-.686.059c-.97.084-1.919.164-2.837.238s-1.8.144-2.649.207-1.648.12-2.4.17S4.8,1.663,4.164,1.7q-.518.069-1.038.11t-1.041.054q-.521.013-1.043,0T0,1.8Z" transform="translate(165.18 205.169)" fill="#f9bea7"/><path d="M22.36,20.879c-.035,0-.045-.133-.042-.385s.019-.624.036-1.1.034-1.06.039-1.736,0-1.443-.032-2.289q-.045-.742-.119-1.482t-.176-1.475q-.1-.736-.232-1.467t-.288-1.458c-.12-.532-.251-1.09-.415-1.647A11.557,11.557,0,0,0,20.522,6.2a6.812,6.812,0,0,0-.92-1.478,5.027,5.027,0,0,0-1.352-1.149q-.4-.216-.823-.4t-.85-.339q-.431-.153-.873-.274t-.892-.208l-3.455-.78q-.724-.163-1.454-.3T8.44,1.013Q7.707.9,6.97.813T5.493.663Q4.806.639,4.118.636T2.744.651Q2.057.669,1.371.707T0,.8A3.543,3.543,0,0,1,1.435.344q.5-.1,1.011-.169T3.463.063Q3.974.021,4.486.007t1.025,0Q6.27.033,7.027.092T8.538.241q.754.091,1.5.214t1.493.278q.419.08.845.166t.867.177l.9.187.935.2q.487.092.966.221t.945.293q.466.164.92.364t.891.433a6.591,6.591,0,0,1,2.622,3.048q.178.427.331.863t.282.88q.129.444.232.894t.182.907q.148.744.262,1.494t.194,1.5q.08.754.125,1.511t.056,1.516q0,.511-.011,1.022t-.048,1.02q-.033.51-.085,1.018t-.122,1.015a3.7,3.7,0,0,1-.461,1.417Z" transform="translate(165.127 214.762)" fill="#f9bea7"/><path d="M6.162,0q.156.69.262,1.389t.161,1.4q.056.7.06,1.411T6.605,5.617v.549L6.038,6.06q-.114-.022-.229-.038t-.23-.027q-.115-.011-.231-.017t-.232-.006a5.6,5.6,0,0,0-3.88,1.772,6.99,6.99,0,0,0-.494.591c-.137.183-.248.348-.338.485s-.162.247-.219.319-.1.106-.136.093S0,9.158,0,9.059a1.689,1.689,0,0,1,.082-.4,4.223,4.223,0,0,1,.238-.59,6.435,6.435,0,0,1,.419-.73A5.51,5.51,0,0,1,5.1,5.12q.143,0,.286.005t.285.022q.142.016.283.04t.28.057l-.549.443q-.045-.716-.037-1.432t.068-1.429q.06-.713.172-1.42T6.162,0Z" transform="translate(171.19 225.524)" fill="#f9bea7"/><path d="M11.339,1.214q-.71.03-1.421.028T8.5,1.207q-.709-.033-1.417-.1T5.67.948Q4.959.966,4.248.954T2.828.9Q2.118.858,1.411.786T0,.611a18.6,18.6,0,0,1,11.339.6Z" transform="translate(166.03 225.25)" fill="#f9bea7"/><path d="M4.593,0A11.819,11.819,0,0,1,4.56,1.519a11.82,11.82,0,0,1-.226,1.5,11.817,11.817,0,0,1-.416,1.455,11.819,11.819,0,0,1-.6,1.4,11.428,11.428,0,0,1-.567,1.41A11.427,11.427,0,0,1,2,8.592,11.43,11.43,0,0,1,1.091,9.8a11.427,11.427,0,0,1-1.07,1.08c-.053-.04,0-.209.118-.487S.458,9.729.7,9.258s.528-1.03.832-1.653.625-1.311.935-2.041.581-1.444.818-2.1.439-1.263.61-1.775S4.208.751,4.323.458,4.526,0,4.593,0Z" transform="translate(161.898 225.01)" fill="#f9bea7"/><path d="M2.534,0,0,80.209l99.787,3.65c-.062-2.388-3.29-5.493-8.1-8.807A159.065,159.065,0,0,0,74.118,64.987c-6.378-3.226-12.749-6.153-17.525-8.274s-7.958-3.435-7.958-3.435L52.356,1.9Z" transform="translate(275.863 565.601)" fill="#b8b8f4"/><path d="M3.024.057A4.072,4.072,0,0,0,.047,4.611,3.895,3.895,0,0,0,4.512,7.6,4.32,4.32,0,0,0,7.666,2.768,4.09,4.09,0,0,0,2.652.163" transform="translate(290.77 613.364)" fill="#fff"/><path d="M0,8.079.567,0,96.031,6.52s.274.131.674.375a9.937,9.937,0,0,1,1.437,1.06A5.838,5.838,0,0,1,99.462,9.6a3.219,3.219,0,0,1,.325,2.129Z" transform="translate(275.863 637.73)" fill="#fff"/><path d="M9.289.507c0,.12-.155.218-.426.322s-.657.212-1.12.352-1,.31-1.579.538a12.122,12.122,0,0,0-1.8.88A13.321,13.321,0,0,0,2.73,3.768c-.479.4-.892.786-1.243,1.12s-.64.615-.868.795-.4.26-.507.193-.142-.288-.079-.61A4.244,4.244,0,0,1,.514,4.053,7.268,7.268,0,0,1,1.641,2.564,8.6,8.6,0,0,1,3.5,1.127,8.474,8.474,0,0,1,5.681.236,7.589,7.589,0,0,1,7.561,0a4.465,4.465,0,0,1,1.3.173C9.16.271,9.32.4,9.289.507Z" transform="translate(316.84 617.928)" fill="#263238"/><path d="M6.869.25c.022.115-.1.249-.311.417s-.529.369-.9.618-.8.546-1.237.907A10.436,10.436,0,0,0,3.1,3.475,12.505,12.505,0,0,0,2,4.969c-.3.483-.553.94-.763,1.332s-.382.72-.531.946S.433,7.6.313,7.586s-.223-.195-.276-.5A3.889,3.889,0,0,1,.063,5.851a6.593,6.593,0,0,1,.527-1.7A7.869,7.869,0,0,1,1.819,2.27,7.16,7.16,0,0,1,3.535.826,6.152,6.152,0,0,1,5.168.137,3.713,3.713,0,0,1,6.389.01C6.691.04,6.869.131,6.869.25Z" transform="translate(329.572 622.898)" fill="#263238"/><path d="M.515,8.258C.4,8.28.285,8.143.189,7.884A3.7,3.7,0,0,1,0,6.777a6.672,6.672,0,0,1,.15-1.615A7.734,7.734,0,0,1,1.978,1.608,6.657,6.657,0,0,1,3.2.551a3.863,3.863,0,0,1,1-.5c.266-.078.448-.069.5.02s-.007.244-.134.46-.327.5-.566.831-.518.728-.805,1.173A15.267,15.267,0,0,0,2.34,4.024,15.97,15.97,0,0,0,1.669,5.6c-.183.5-.331.954-.46,1.345a8.717,8.717,0,0,1-.351.943C.748,8.117.639,8.25.515,8.258Z" transform="translate(341.4 627.629)" fill="#263238"/><path d="M10.4,1.933c-.058.111-.239.146-.522.138s-.667-.059-1.13-.121-1-.135-1.6-.187A16.275,16.275,0,0,0,5.211,1.7a19.093,19.093,0,0,0-1.935.169c-.6.08-1.136.174-1.6.252a10.86,10.86,0,0,1-1.129.152c-.284.014-.468-.019-.53-.13s.025-.3.242-.512a4.237,4.237,0,0,1,1.02-.7A8.1,8.1,0,0,1,2.96.3,9.7,9.7,0,0,1,5.175,0,9.257,9.257,0,0,1,7.4.222,8.059,8.059,0,0,1,9.1.8a4.431,4.431,0,0,1,1.044.663C10.372,1.669,10.464,1.84,10.4,1.933Z" transform="translate(315.284 604.702)" fill="#263238"/><path d="M14.956,8.487a9.512,9.512,0,0,1-1.251.2,9.507,9.507,0,0,1-1.261.03,9.513,9.513,0,0,1-1.254-.137,9.514,9.514,0,0,1-1.23-.3q-.671-.142-1.332-.324t-1.309-.4q-.648-.222-1.282-.483T4.786,6.5q-.365-.18-.724-.372t-.711-.4q-.352-.2-.7-.419t-.684-.443q-.2-.126-.4-.266T1.2,4.313Q1.016,4.16.845,3.994T.516,3.65a2.143,2.143,0,0,1-.142-2.6A2.763,2.763,0,0,1,2.553,0q.24.006.478.031T3.505.1q.235.042.467.1t.459.137q.4.11.786.238t.774.275q.384.146.76.311t.745.346q.621.308,1.215.665t1.156.759q.562.4,1.091.849t1.021.935a16.464,16.464,0,0,1,1.412,1.572,11.853,11.853,0,0,1,.9,1.307,5.592,5.592,0,0,1,.443.908c.078.221.091.354.046.377s-.147-.055-.312-.213-.391-.4-.682-.695-.647-.659-1.071-1.06S11.8,6.064,11.235,5.6q-.5-.4-1.024-.771t-1.07-.7q-.546-.335-1.112-.635T6.876,2.924q-.344-.152-.694-.29t-.7-.262q-.355-.124-.714-.234t-.723-.206a6.933,6.933,0,0,0-.75-.175A3.587,3.587,0,0,0,2.64,1.7a1.482,1.482,0,0,0-.509.086.633.633,0,0,0-.321.253.715.715,0,0,0-.061.118.239.239,0,0,0-.014.112.426.426,0,0,0,.045.138,1.8,1.8,0,0,0,.118.2q.118.132.245.255t.263.236q.135.113.279.217t.294.2q.31.22.627.43t.641.409q.324.2.653.388t.666.367q.568.31,1.15.592t1.176.538q.594.255,1.2.482t1.222.426q.591.128,1.178.276t1.167.317q.581.168,1.155.357t1.142.4Z" transform="translate(308.781 586.224)" fill="#263238"/><path d="M1.152,15.716c-.044,0-.134-.111-.245-.325a5.989,5.989,0,0,1-.371-.948,11.33,11.33,0,0,1-.351-1.53A15.141,15.141,0,0,1,0,10.843q0-.694.05-1.384T.215,8.086Q.326,7.4.494,6.732T.886,5.4q.137-.39.292-.773t.328-.757q.173-.375.364-.741t.4-.723A4.163,4.163,0,0,1,5.546,0,2.321,2.321,0,0,1,7.584,1.471q.092.222.165.451t.129.462q.056.233.093.47t.056.477q.051.42.069.843t.005.844q-.013.422-.059.842T7.92,6.7a11.564,11.564,0,0,1-.343,1.371,11.573,11.573,0,0,1-.506,1.314,11.582,11.582,0,0,1-.661,1.243A11.572,11.572,0,0,1,5.6,11.782,11.093,11.093,0,0,1,4.089,13.3a8.409,8.409,0,0,1-1.321.9,4.769,4.769,0,0,1-.942.4c-.23.065-.365.067-.374.027s.085-.131.256-.282.419-.363.718-.646a14.718,14.718,0,0,0,1.024-1.068,15.019,15.019,0,0,0,1.173-1.548,11.718,11.718,0,0,0,.628-1.084A11.719,11.719,0,0,0,5.76,8.865a11.712,11.712,0,0,0,.383-1.189A11.708,11.708,0,0,0,6.4,6.449q.05-.359.075-.721T6.5,5.005q0-.362-.025-.723T6.4,3.561a5.415,5.415,0,0,0-.126-.748,3.168,3.168,0,0,0-.2-.6,1.055,1.055,0,0,0-.261-.367.285.285,0,0,0-.3-.06,2.879,2.879,0,0,0-.391.2,4.4,4.4,0,0,0-.494.339,3.812,3.812,0,0,0-.494.466,2.634,2.634,0,0,0-.391.575q-.194.318-.374.643t-.346.658Q2.852,5,2.7,5.339t-.29.685q-.231.6-.42,1.207T1.658,8.464q-.144.622-.244,1.253t-.155,1.269c-.075.74-.1,1.405-.106,1.987s.018,1.081.04,1.487.045.72.046.933S1.218,15.716,1.152,15.716Z" transform="translate(321.929 579.598)" fill="#263238"/><path d="M69.435,0,94.7,76.187.105,108.079c-.625-2.308,1.584-6.2,5.247-10.752A158.805,158.805,0,0,1,19.331,82.674c5.2-4.909,10.472-9.529,14.448-12.923s6.652-5.559,6.652-5.559l-18.2-48.139Z" transform="translate(59.281 566.185)" fill="#b8b8f4"/><path d="M3.668,0A4.037,4.037,0,0,1,7.814,3.546,3.895,3.895,0,0,1,4.376,7.692,4.285,4.285,0,0,1,0,3.953a3.619,3.619,0,0,1,.355-1.5,4.717,4.717,0,0,1,.93-1.331,4.028,4.028,0,0,1,1.3-.893A2.674,2.674,0,0,1,4.057.038" transform="translate(123.915 616.413)" fill="#fff"/><path d="M94.938,7.583,92.1,0,2.451,33.434s-.221.2-.531.553A10.05,10.05,0,0,0,.858,35.414a5.952,5.952,0,0,0-.792,1.952,3.253,3.253,0,0,0,.276,2.128Z" transform="translate(59.044 634.771)" fill="#fff"/><path d="M.017,1.242c.044.115.226.166.517.189s.69.018,1.171.021,1.042.015,1.656.071a12.067,12.067,0,0,1,1.972.339,14.129,14.129,0,0,1,1.894.653c.569.24,1.072.488,1.5.7s.782.4,1.052.5.456.139.549.055.063-.3-.087-.586a4.211,4.211,0,0,0-.808-1.02,7.225,7.225,0,0,0-1.512-1.1,8.472,8.472,0,0,0-2.2-.835A8.944,8.944,0,0,0,3.368.006,7.78,7.78,0,0,0,1.507.3,4.386,4.386,0,0,0,.327.81C.069.984-.045,1.145.017,1.242Z" transform="translate(97.995 629.17)" fill="#263238"/><path d="M.005.515c0,.12.145.217.4.318s.612.206,1.04.34.926.3,1.455.516a10.4,10.4,0,0,1,1.643.846,12.209,12.209,0,0,1,1.47,1.116c.428.376.8.743,1.11,1.059s.572.584.781.76.368.263.484.219.164-.247.128-.553a3.831,3.831,0,0,0-.377-1.172A6.468,6.468,0,0,0,7.15,2.5a7.573,7.573,0,0,0-1.705-1.42A7.4,7.4,0,0,0,3.394.211,6.667,6.667,0,0,0,1.622,0,4.083,4.083,0,0,0,.4.19C.117.29-.03.413.005.515Z" transform="translate(89.466 637.321)" fill="#263238"/><path d="M6.38,6.846c.115,0,.193-.161.212-.435a3.645,3.645,0,0,0-.141-1.118,6.679,6.679,0,0,0-.619-1.52A7.682,7.682,0,0,0,4.609,2.133,8.078,8.078,0,0,0,3.017.862,6.725,6.725,0,0,0,1.548.189,3.6,3.6,0,0,0,.458,0C.186.006.02.073,0,.184s.084.25.272.425.462.385.789.636.706.544,1.1.885A13.552,13.552,0,0,1,3.386,3.3c.4.443.762.893,1.081,1.316s.6.821.842,1.16a8.679,8.679,0,0,0,.629.808C6.115,6.775,6.261,6.873,6.38,6.846Z" transform="translate(81.461 644.81)" fill="#263238"/><path d="M.046,3.749c.084.089.266.071.533-.018s.619-.248,1.044-.443.924-.425,1.483-.656a18.289,18.289,0,0,1,1.848-.656,16.1,16.1,0,0,1,1.908-.425c.594-.1,1.136-.159,1.6-.211s.843-.095,1.116-.154.437-.136.463-.256-.111-.27-.38-.415A4.284,4.284,0,0,0,8.484.135,7.978,7.978,0,0,0,6.705.005,9.407,9.407,0,0,0,4.511.348a9.109,9.109,0,0,0-2.063.858A8.184,8.184,0,0,0,.976,2.268a4.567,4.567,0,0,0-.821.953C0,3.485-.042,3.678.046,3.749Z" transform="translate(95.042 615.235)" fill="#263238"/><path d="M0,11.806c0,.049.124.064.353.037a6.43,6.43,0,0,0,.983-.221,14.771,14.771,0,0,0,1.5-.536,20.55,20.55,0,0,0,1.9-.91q.6-.33,1.183-.7t1.137-.765q.557-.4,1.089-.832t1.038-.9q.3-.277.586-.563t.568-.581q.279-.295.549-.6t.53-.615q.161-.18.308-.371T12,3.865q.131-.2.246-.414t.213-.433A2.107,2.107,0,0,0,11.853.5,2.693,2.693,0,0,0,9.461.13Q9.236.2,9.018.29t-.43.193q-.211.1-.414.225t-.4.256q-.348.22-.685.456T6.43,1.9q-.326.251-.64.516t-.616.545q-.511.472-.981.983T3.3,5.006q-.427.547-.808,1.127T1.772,7.323a16.4,16.4,0,0,0-.9,1.909,11.77,11.77,0,0,0-.486,1.507,5.553,5.553,0,0,0-.164,1c-.011.234.015.365.064.374s.125-.1.238-.3.263-.5.459-.872.438-.822.735-1.327.649-1.067,1.066-1.665q.366-.528.764-1.031t.826-.981Q4.8,5.455,5.258,5T6.2,4.134q.288-.245.585-.478t.6-.455q.306-.222.62-.431t.637-.407a6.375,6.375,0,0,1,.672-.387,3.45,3.45,0,0,1,.608-.238,1.464,1.464,0,0,1,.509-.058.624.624,0,0,1,.373.151A2.243,2.243,0,0,1,11,2.017c.034.041.04.066.027.091a.549.549,0,0,1-.082.094.881.881,0,0,0-.137.2q-.077.159-.164.312t-.185.3q-.1.147-.205.286t-.225.272q-.237.3-.482.587t-.5.574q-.253.284-.513.56t-.528.546q-.459.458-.938.893t-.978.848q-.5.412-1.017.8t-1.054.753q-.525.3-1.039.617T1.965,10.4q-.5.335-.995.686T0,11.806Z" transform="translate(93.582 595.201)" fill="#263238"/><path d="M10.263,13.876a8.168,8.168,0,0,0-.3-5q-.192-.668-.439-1.317T8.976,6.289q-.3-.625-.652-1.223T7.57,3.9q-.243-.333-.5-.654t-.531-.629q-.273-.308-.56-.6T5.39,1.438A4.163,4.163,0,0,0,1.563.056a2.338,2.338,0,0,0-1.541,2Q0,2.3,0,2.534t.011.476q.013.238.043.474t.074.47Q.2,4.371.3,4.781t.239.81q.136.4.3.789t.364.763A11.464,11.464,0,0,0,4.876,11.36a11.894,11.894,0,0,0,1.876,1.021,8.862,8.862,0,0,0,1.517.5,4.591,4.591,0,0,0,1.012.131c.237,0,.365-.042.361-.1s-.117-.12-.32-.219-.494-.231-.856-.415-.795-.42-1.278-.727A15.6,15.6,0,0,1,5.6,10.4,11.606,11.606,0,0,1,2.609,6.452q-.154-.328-.284-.667T2.09,5.1q-.1-.346-.183-.7t-.131-.713A4.567,4.567,0,0,1,1.7,2.937,3.423,3.423,0,0,1,1.743,2.3a1.483,1.483,0,0,1,.14-.448.307.307,0,0,1,.212-.184,2.888,2.888,0,0,1,2.18.993A17.309,17.309,0,0,1,5.7,4.1,17.312,17.312,0,0,1,6.937,5.689,17.3,17.3,0,0,1,7.985,7.412a17.306,17.306,0,0,1,.843,1.839c.266.687.471,1.32.633,1.884s.282,1.058.377,1.465.166.729.231.947S10.192,13.88,10.263,13.876Z" transform="translate(84.117 593.592)" fill="#263238"/><path d="M105.984,60.861s-2.317-2.054-6.046-5.131-8.871-7.176-14.52-11.267a153.4,153.4,0,0,0-17.57-11.214c-5.762-3.041-11.128-5.042-15.195-4.972a150,150,0,0,0-17.392.762c-6.941.861-14.437,2.752-20.726,6.945S3.166,46.671,1.056,56.736-.194,80.439,5.4,98.919c5.656,18.644,12.417,39.748,19.393,60.853s14.168,42.212,20.687,60.86,12.365,34.838,16.651,46.11,7.009,17.626,7.284,16.6l69.507-30.563L110.68,146.775s5.922.066,15.091.128,21.586.12,34.574.1,26.549-.111,38.006-.35,20.811-.625,25.387-1.227,10.146-2.565,15.927-5.169a187.806,187.806,0,0,0,17.194-9.023c5.421-3.171,10.269-6.268,13.763-8.571s5.632-3.814,5.632-3.814L270.76,252.9l72.643-4.057s.637-10.057,1.638-25.659,2.366-36.75,3.824-58.93,3.007-45.394,4.375-65.129,2.557-35.991,3.292-44.256a43.016,43.016,0,0,0-4.1-21.591,58.759,58.759,0,0,0-13.972-18.863A57.038,57.038,0,0,0,317.828,2.325a45.855,45.855,0,0,0-24.088-1.28c-5.391,1.192-14.249,5.485-24.5,11.254s-21.906,13.016-32.883,20.113-21.281,14.045-28.84,19.219-12.374,8.573-12.374,8.573Z" transform="translate(0 324.372)" fill="#263238"/><path d="M3.451,0q.027.443.035.887t0,.887q-.011.443-.041.886t-.08.884q-.046.924-.1,1.985T3.148,7.785Q3.086,8.979,3.016,10.3t-.15,2.773c-.093,2.011-.178,4.216-.257,6.584s-.151,4.9-.217,7.564-.127,5.462-.184,8.361-.109,5.9-.157,8.976-.1,6.078-.155,8.982-.116,5.705-.184,8.375-.142,5.207-.227,7.581-.179,4.584-.285,6.6q-.08,1.515-.162,2.88T.873,81.544q-.083,1.2-.166,2.231C.653,84.46.6,85.086.546,85.648q-.022.447-.062.892t-.1.889q-.058.443-.133.884t-.168.878q-.042-.442-.064-.885T0,87.42q0-.443.021-.887t.064-.885q0-.93.027-2t.066-2.261q.04-1.2.086-2.52T.351,76.1c.031-2.069.065-4.31.1-6.7s.077-4.926.119-7.586S.659,56.37.7,53.49.8,47.63.847,44.578s.11-6.044.183-8.941.159-5.7.258-8.373.21-5.217.334-7.6.262-4.594.412-6.609q.106-1.508.215-2.87t.219-2.561q.11-1.2.219-2.229c.073-.685.144-1.311.215-1.873q.027-.446.075-.89t.117-.885q.069-.441.158-.879T3.451,0Z" transform="translate(275.3 372.069)" fill="#455a64"/><path d="M10.338,31.91q-.481-.41-.925-.859t-.846-.934q-.4-.485-.762-1t-.674-1.067A43.177,43.177,0,0,1,.044,5.014Q0,4.382,0,3.75T.06,2.489Q.116,1.86.222,1.237T.487,0c.1,0,.143.483.191,1.346s.1,2.107.236,3.628.339,3.321.691,5.3a49.555,49.555,0,0,0,1.557,6.349,57.013,57.013,0,0,0,2.355,6.109c.826,1.832,1.66,3.444,2.4,4.785s1.376,2.411,1.815,3.161S10.4,31.852,10.338,31.91Z" transform="translate(265.472 402.898)" fill="#455a64"/><path d="M88.873,89.883c-.027,0-.056-.111-.095-.329s-.086-.544-.146-.973-.136-.963-.23-1.6-.207-1.37-.344-2.2q-.3-1.733-.691-3.447t-.87-3.4q-.479-1.69-1.046-3.354t-1.22-3.3q-.965-2.417-2.108-4.75t-2.458-4.57q-1.315-2.237-2.8-4.371t-3.125-4.152q-2.025-2.466-4.273-4.721t-4.7-4.28q-2.448-2.025-5.084-3.81t-5.438-3.313c-3.942-2.286-7.765-4.558-11.433-6.79s-7.181-4.424-10.5-6.549-6.456-4.183-9.365-6.147-5.591-3.835-8.014-5.584Q13.122,10.914,11.508,9.7T8.493,7.4q-1.4-1.09-2.579-2.051T3.792,3.561q-.485-.405-.9-.775t-.772-.7q-.355-.327-.653-.608c-.2-.186-.379-.356-.543-.506Q.793.865.672.75T.435.512Q.319.39.211.262T0,0L.271.209l.792.615,1.284,1q.76.593,1.746,1.365T6.286,4.882Q7.494,5.8,8.921,6.857t3.06,2.227q1.634,1.172,3.469,2.45c2.441,1.7,5.14,3.52,8.063,5.444s6.068,3.947,9.4,6.044,6.851,4.265,10.52,6.479,7.488,4.473,11.422,6.75Q57.7,37.8,60.372,39.625t5.147,3.891q2.475,2.07,4.74,4.378t4.3,4.834q1.653,2.064,3.137,4.247t2.793,4.471q1.308,2.288,2.437,4.675t2.069,4.857q.646,1.655,1.191,3.345t.989,3.407q.444,1.717.785,3.459t.578,3.5c.071.416.123.811.163,1.181s.067.718.088,1.04.036.62.051.891.031.516.053.733q.023.168.034.336t.008.338q0,.169-.017.337T88.873,89.883Z" transform="translate(88.072 372.069)" fill="#455a64"/><path d="M15.288,0q-.109.4-.239.8t-.281.784q-.151.388-.322.768t-.363.75q-.326.731-.705,1.631t-.805,1.955q-.425,1.055-.891,2.257t-.965,2.538q-2.643,7-4.574,14.2T3,40.238Q1.794,47.582,1.314,55.029T1.1,69.95q.046,1.428.1,2.717t.119,2.423q.063,1.135.132,2.108c.046.648.094,1.239.142,1.77q.056.414.093.83t.058.832q.02.417.022.834t-.014.835q-.119-.4-.217-.807t-.176-.816q-.078-.41-.134-.824t-.093-.83c-.084-.527-.168-1.116-.251-1.763s-.163-1.352-.241-2.11S.488,73.577.419,72.715s-.133-1.773-.191-2.73A135.681,135.681,0,0,1,9.9,11.251q.545-1.329,1.058-2.521T11.946,6.5q.473-1.041.9-1.925t.809-1.594q.167-.391.352-.774t.39-.755q.2-.372.426-.735T15.288,0Z" transform="translate(187.295 383.461)" fill="#455a64"/><path d="M0,0Q.132.07.26.146T.512.3q.124.082.244.17T.992.656l2.8,2.038,2,1.471c.177.142.354.292.533.45s.359.321.541.489l.558.516c.19.175.383.352.583.529q.686.588,1.351,1.2T10.67,8.587q.645.632,1.268,1.284T13.164,11.2l2.817,3.136q.339.425.673.869t.673.9q.339.457.687.924t.713.939L20.163,19.9q.173.252.34.511t.331.521q.164.262.328.528t.33.531q.332.532.666,1.07l.672,1.087q.339.548.685,1.107t.705,1.13q1.39,2.526,2.671,5.109t2.449,5.216q1.168,2.634,2.223,5.316t1.995,5.409q1.023,2.884,1.93,5.723t1.726,5.605q.819,2.766,1.563,5.442t1.442,5.235q.7,2.558,1.359,4.98t1.272,4.694q.611,2.272,1.166,4.388t1.04,4.063q.485,1.947.958,3.691t.909,3.272q.437,1.528.826,2.834c.258.869.5,1.662.708,2.375l.279.974.251.876q.118.414.221.779t.189.685q.052.141.094.286t.076.291q.033.146.057.295t.039.3q-.064-.135-.123-.272t-.112-.277q-.053-.14-.1-.281t-.089-.285q-.106-.312-.226-.671l-.256-.766q-.136-.407-.29-.862t-.326-.96q-.359-1.063-.767-2.367T46.5,94.644q-.458-1.525-.967-3.261t-1.066-3.663L39.458,69.649q-.711-2.551-1.465-5.221T36.412,59q-.826-2.757-1.736-5.587t-1.934-5.7Q31.811,45,30.768,42.338t-2.2-5.287q-1.153-2.62-2.414-5.191t-2.63-5.088q-.326-.571-.657-1.127t-.665-1.1q-.334-.545-.669-1.081L20.872,22.4q-.166-.266-.329-.531l-.326-.528q-.163-.262-.326-.521T19.56,20.3l-1.417-1.913q-.346-.472-.68-.939t-.665-.926q-.331-.458-.661-.906t-.67-.879l-2.835-3.154q-.585-.68-1.193-1.339T10.2,8.951Q9.574,8.313,8.923,7.7T7.6,6.485q-.286-.272-.559-.54T6.5,5.422q-.266-.256-.526-.5c-.174-.16-.347-.314-.519-.46L3.508,2.941.833.78Q.719.693.61.6T.4.41q-.1-.1-.2-.2T0,0Z" transform="translate(63.231 373.84)" fill="#455a64"/><path d="M0,20.127a62.662,62.662,0,0,0,10.17,5.418A84.025,84.025,0,0,0,20.807,29.17c3.62.989,7.312,1.8,11.072,2.546s7.587,1.434,11.476,2.178c2.246.443,4.517.869,6.8,1.219s4.571.623,6.854.761a46.623,46.623,0,0,0,6.814-.056A33.832,33.832,0,0,0,70.5,34.585a55.374,55.374,0,0,0,13.9-6.677A133.315,133.315,0,0,0,97.543,18.07c4.2-3.5,8.19-7.061,11.882-10.227A94.3,94.3,0,0,1,119.525,0L69.117,12.775Z" transform="translate(105.169 364.432)" fill="#ce32d6"/></g></g></svg>