<?xml version="1.0" encoding="utf-8"?>
<!-- Generator: Adobe Illustrator 25.2.0, SVG Export Plug-In . SVG Version: 6.00 Build 0)  -->
<svg version="1.1" id="Layer_1" xmlns="http://www.w3.org/2000/svg" xmlns:xlink="http://www.w3.org/1999/xlink" x="0px" y="0px"
	 viewBox="0 0 1047.9 1248.7" style="enable-background:new 0 0 1047.9 1248.7;" xml:space="preserve">
<style type="text/css">
	.st0{fill:none;stroke:#000000;stroke-width:6;stroke-miterlimit:10;}
	.st1{fill:none;stroke:#FFB000;stroke-width:6;stroke-miterlimit:10;}
	.st2{fill:#BFCBEE;stroke:#000000;stroke-width:6;stroke-miterlimit:10;}
	.st3{fill:#F981FB;}
	.st4{fill:#F919FF;}
	.st5{fill:#DBDAFF;}
	.st6{fill:#F6DCBF;}
	.st7{fill:none;stroke:#6562CF;stroke-width:7;stroke-linecap:round;stroke-miterlimit:10;}
	.st8{fill:none;stroke:#FFFFFF;stroke-width:6;stroke-linecap:round;stroke-miterlimit:10;}
	.st9{fill:#67A2FB;}
	.st10{fill:#FFD2BC;}
	.st11{fill:#C36F0B;}
	.st12{fill:none;stroke:#B65A18;stroke-width:3;stroke-linecap:round;stroke-miterlimit:10;}
	.st13{fill:none;stroke:#000000;stroke-width:3;stroke-linecap:round;stroke-miterlimit:10;}
	.st14{fill:#C7BFFF;}
	.st15{fill:#FFFFFF;}
	.st16{fill:#E2E2FF;}
	.st17{fill:#FFFFFF;stroke:#000000;stroke-width:6;stroke-miterlimit:10;}
</style>
<g>
	<line class="st0" x1="553" y1="779.5" x2="553" y2="1245.2"/>
	<line class="st1" x1="758.7" y1="779.5" x2="758.7" y2="1245.2"/>
	<line class="st0" x1="551" y1="1170.3" x2="756.2" y2="1170.3"/>
	<path class="st2" d="M518.3,717.1h273.1c9.2,0,16.6,7.4,16.6,16.6v29.2c0,9.2-7.4,16.6-16.6,16.6H518.3c-9.2,0-16.6-7.4-16.6-16.6
		v-29.2C501.7,724.5,509.1,717.1,518.3,717.1z"/>
	<path class="st3" d="M753.7,267.5c16.9-4.8,40.3-57.3,14.7-85.8s-80-29.3-126.1-22.4c-42.7,6.4-98.7,31.1-77.3,84.5
		C595.3,319.7,753.7,267.5,753.7,267.5z"/>
	<path class="st4" d="M728.2,231.7c16-3.4,43.5-30,19.3-50.3s-61.4-22.2-101-15.5s-80.7,20.8-61.8,59.2S728.2,231.7,728.2,231.7z"/>
	<path class="st5" d="M822.6,1240.6c-10.3,6.4-73.7,6-85.6,0s-9.2-26.3-11.1-39.8s-30.3-39-31.8-47.8s29.1-27.9,34.4-35.7
		c-4.4,12.9,39.5,15.8,43,7.4c-1.7,30.7,20.8,79.4,39.3,83.8C822.3,1211.3,832.9,1234.2,822.6,1240.6z"/>
	<path class="st6" d="M780.8,1091.2l-9.5,33.5c-3.5,8.4-47.4,5.5-43-7.4s2.7-35.4,2.7-35.4L780.8,1091.2z"/>
	<path class="st7" d="M694,1153c1.6,8.8,29.9,34.2,31.9,47.8s-0.8,33.8,11.1,39.8s75.2,6.4,85.6,0"/>
	<path class="st8" d="M773.8,1208.4c0,0,21-9.4,41.9-2"/>
	<path class="st5" d="M534.1,1240.6c10.3,6.4,66.7,6,78.6,0s19.2-26.3,21.1-39.8s21.3-44,22.8-52.8s-29.1-27.9-34.4-35.7
		c4.4,12.9-38.5,20.8-42,12.4c1.7,30.7-15.8,79.4-34.3,83.8C534.4,1211.3,523.8,1234.2,534.1,1240.6z"/>
	<path class="st6" d="M558.9,1089.2l21.5,35.5c3.5,8.4,46.4,0.5,42-12.4s-5.7-33.4-5.7-33.4L558.9,1089.2z"/>
	<path class="st7" d="M656.7,1148c-1.6,8.8-20.9,39.2-22.8,52.8s-9.2,33.8-21.2,39.8s-68.2,6.4-78.6,0"/>
	<path class="st8" d="M582.9,1208.4c0,0-21-9.4-41.9-2"/>
	<path id="PANTS" class="st9" d="M553.2,582.3c0,0-208.3,102-208.3,164.7c0,111.9,186.3,348,218.3,344.9s63.5-9.9,62.3-23.4
		s-68.2-225.8-120.3-288.7c0,0,19-29.9,137.7-28.6c57.2,0.6,107.1,4.5,108.3,6.4s-62.2,125.7-29.8,317.1
		c2.8,16.7,72.6,23.7,79.3,14.4s115-334.3,104.6-360.2s-119-118.5-171.9-146.7C695.2,562,553.2,582.3,553.2,582.3z"/>
	<path class="st3" d="M493.7,258.9c-26.4,14.5-65.9,144.5-65.9,144.5s-95.1-116.7-99.5-117.8s-30,33-30,33S348,540.2,425.5,545.2
		c32.5,2.1,60-16.8,82.6-44.4c10,33.4,19.3,60.9,19.3,60.9c4,14-70.6,52.5-53.6,63.1c0,0,58.1-18.9,160.6,7.5
		C757,664,816.3,640,804.7,630.8s-29.8-39.1-36.1-59.1L779.9,464c0,0,39.6,100.5,99.4,100.5c71.4,0,136.6-218.2,136.6-218.2
		c-25.4-0.7-46.4-18.8-46.4-18.8c-26.8,18.8-82.6,84.8-82.6,84.8s-34.8-105.2-51.5-129.1s-71-42.8-107.3-51.5l-143.5-6.5
		C575,223.4,516.2,243.5,493.7,258.9z"/>
	<path class="st4" d="M886.9,407.9c-18.2,20.9-34.5,58-34.5,58"/>
	<path class="st4" d="M772.9,247.6c-69.7-5.9-139.6,37.9-139.6,37.9s-61.5-13.8-73.8-54.7"/>
	<path class="st4" d="M529.4,561.7c0,0-38.5-110.5-43.8-157.1"/>
	<path class="st6" d="M1013.9,266.7c-0.9,6-7.4,15.2-1,15.1c3.3,0,27.2-3.9,30.1,4.9c1.2,4.2,1,8.6-0.6,12.7
		c5.2,7.8,1.2,14.2,1.2,14.2c3.2,4.9,4,11.1,1.8,13.9c0,0,5.5,12.8,0.2,15.7c-16.4,9.2-42.5,11.1-55.1,7.8
		c-8.9-2.3-19.5-7.8-22.2-26.6c-1.1-7.7,6.6-28,12.5-36.4c2.4-3.4,11.2-17.2,14.2-20.9c4.2-5.5,7.1-11.9,8.4-18.8
		C1003.4,248.3,1016.5,250.1,1013.9,266.7z"/>
	<path class="st10" d="M1035.3,285.5c0.6,4-23.8,4.8-28,5.8c-6,1.3-5.2,14.1,2.6,12.9c10.6-0.5,21.1-2,31.4-4.5"/>
	<path class="st10" d="M1042,313.7c-25.8,5.2-32.7,4.7-32.7,4.7c-3.8,0.7-8.6-12.5,0.5-14.3"/>
	<path class="st10" d="M1042.6,327c-24.3,5.3-32.7,4.7-32.7,4.7c-3.6,0.4-8.1-12.2-0.8-13.1"/>
	<path class="st10" d="M1016.8,331.5c0,0-8.7-0.8-8.5,4.6c0.2,9.6,4.9,10.6,26.8,6.6"/>
	<g id="LEFT">
		<path id="ARM" class="st11" d="M293.6,237.2c0.2,6,5.5,15.9-0.8,15c-3.3-0.4-26.3-7.1-30.2,1.2c-1.7,4-2.1,8.4-0.9,12.6
			c-6.1,7.1-2.9,13.8-2.9,13.8c-3.7,4.4-5.3,10.5-3.5,13.5c0,0-7,11.9-2.2,15.5c15,11.1,40.5,16.1,53.4,14.4
			c9-1.2,20.2-5.3,25.1-23.6c2-7.5-3.1-28.4-7.9-37.4c-2-3.7-9-18.3-11.4-22.4c-3.5-5.9-5.5-12.6-6-19.5
			C306.2,220.3,293,220.5,293.6,237.2z"/>
		<g id="FINGERS">
			<path class="st11" d="M263.5,309.5c21.1,6.6,25.9,6.2,27.3-3.2c0.4-3-2.1-4.4-4.4-5c1.1,0.2,2.1,0.4,3.2,0.5
				c3.2,0.8,8.7-10.2,3.8-13.2c2-1,4.1-8.2,4.1-14.5c3.7-2.6,4-10.2-0.3-11.8c-4.1-1.4-28-5.2-27-9.1L263.5,309.5z"/>
			<path class="st12" d="M263.9,266.3c9.5,3.7,19.2,6.4,29.2,8.3c7.5,2.2,9.8-10.4,4.1-12.4c-4.1-1.4-23.2-7.7-27-9.1"/>
			<path class="st12" d="M261.4,280.1c24.8,8.2,30.4,8.6,30.4,8.6c3.6,1.2,10-11.3,1.2-14.1"/>
			<path class="st12" d="M258,293.1c23.3,8.2,31.6,8.6,31.6,8.6c3.5,0.9,8.4-12.2-0.2-13.4"/>
			<path class="st12" d="M282.9,300.7c0,0,8.6,0.3,7.9,5.6c-1.4,9.4-6.1,9.9-27.3,3.2"/>
		</g>
	</g>
	<path class="st6" d="M697.7,138.2c0,0-15.2,68.1,30.4,93.5c0,0-42,7.2-95.7,51.5c0,0-41.3-34.8-47.8-58c0,0,42-14.5,37.7-87
		L697.7,138.2z"/>
	<path class="st10" d="M697.7,138.2h-75.4c4.3,72.5-37.7,87-37.7,87s83.8,0,107.5-74.7L697.7,138.2z"/>
	<path id="HEAD-2" class="st6" d="M700.6,137.5c0,0-22.4,43.7-75.9,43.7c-47.7,0-55-140.1,16.1-142c67.7-1.8,59,78.3,59,78.3
		s12.2-7.1,16.6,0.3S700.6,137.5,700.6,137.5z"/>
	<path class="st13" d="M669.2,44.4c0,0-0.8,24.3-34.3,23.9c-29.1-0.3-45.1,16.2-46.7,28.1"/>
	<path d="M761.3,92.3c0,26.4-31.9,49.3-67.2,64.8c-2.1,0.9-5.5,1.1-9.8,0.8c6.5-5.9,11.9-12.7,16.2-20.3c0,0,20.1-12.5,15.8-19.7
		s-16.6-0.3-16.6-0.3s6.1-55.8-31.3-73.2c-0.3,0.5-10,17.7-38.7,18.6C602.5,63.7,595,74.1,591.9,85c-0.1,0.4-0.2,0.8-0.3,1.1
		c-3.5,14.5-4.4,29.5-2.5,44.2l-0.2-0.1c-2.7-3.2-38.9-49.1-29.4-73.7C569.8,29.8,635.5-7.9,688,1.5
		C717.3,6.7,761.3,78.4,761.3,92.3z"/>
	<path class="st14" d="M523.3,471H120.5c-11.3,0-21.4-7.3-25-18L10.2,198.8c-3.3-9.7,2-20.3,11.7-23.5c1.9-0.6,3.9-1,5.9-1h402.8
		c11.3,0,21.4,7.3,25,18l85.3,254.1c3.3,9.7-1.9,20.3-11.6,23.6C527.3,470.7,525.3,471,523.3,471z"/>
	<path class="st15" d="M514.1,480.9H111.3c-11.3,0-21.4-7.3-25-18L1,208.8c-3.3-9.7,2-20.3,11.7-23.5c1.9-0.6,3.9-1,5.9-1h402.7
		c11.3,0,21.4,7.3,25,18l85.3,254.1c3.3,9.7-2,20.3-11.7,23.5C518.1,480.6,516.1,480.9,514.1,480.9z"/>
	<path class="st0" d="M523.3,470.2H120.5c-11.3,0-21.4-7.3-25-18L10.2,198.1c-3.3-9.7,2-20.3,11.7-23.5c1.9-0.6,3.9-1,5.9-1h402.8
		c11.3,0,21.4,7.3,25,18l85.4,254.1c3.3,9.7-2,20.3-11.7,23.5C527.3,469.9,525.3,470.2,523.3,470.2z"/>
	<path class="st16" d="M349.1,390.5l30.6,76.2h-66.2C313.5,466.8,326.4,407.1,349.1,390.5z"/>
	<path class="st17" d="M393.1,562.4c-130.4,0-75.6-139.5-49.6-168.5H243.1c-25.9,29-96.1,176.2,34.3,176.2h115.7V562.4z"/>
	
		<ellipse transform="matrix(0.5338 -0.8456 0.8456 0.5338 -143.8053 368.3358)" class="st16" cx="262.1" cy="314.6" rx="19.1" ry="24"/>
	
		<ellipse transform="matrix(0.5338 -0.8456 0.8456 0.5338 -136.2502 371.2331)" class="st0" cx="268.5" cy="309.2" rx="19.1" ry="24"/>
	<path class="st15" d="M93.8,570.1h597.2c8.8,0,15.9,6.6,15.9,14.8l0,0c0,8.2-7.1,14.8-15.9,14.8H93.8V570.1z"/>
	<path class="st0" d="M93.8,570.1h597.2c8.8,0,15.9,6.6,15.9,14.8l0,0c0,8.2-7.1,14.8-15.9,14.8H93.8"/>
</g>
</svg>
