<svg xmlns="http://www.w3.org/2000/svg" viewBox="0 0 418.73 312.14"><defs><style>.cls-1{fill:#fffbdf;}.cls-2{fill:#54ef75;}.cls-3{fill:#50b89d;}.cls-4{fill:#7ce274;}.cls-10,.cls-12,.cls-16,.cls-17,.cls-19,.cls-5,.cls-8{fill:none;}.cls-5{stroke:#fff;stroke-width:0.4px;}.cls-16,.cls-17,.cls-19,.cls-5,.cls-8{stroke-linecap:round;}.cls-16,.cls-17,.cls-19,.cls-5{stroke-linejoin:round;}.cls-6{fill:#b37361;}.cls-7{fill:#73e5e2;}.cls-8{stroke:#fbdc8e;stroke-width:2px;}.cls-10,.cls-12,.cls-8{stroke-miterlimit:10;}.cls-9{fill:#6786fb;}.cls-10{stroke:#0c9f8c;}.cls-10,.cls-12{stroke-width:1.01px;}.cls-11{fill:#ffb1a5;}.cls-12{stroke:#ef948b;}.cls-13{fill:#f919ff;}.cls-14{fill:#f978fb;}.cls-15{fill:#111d36;}.cls-16,.cls-17,.cls-19{stroke:#111d36;}.cls-16{stroke-width:0.79px;}.cls-17{stroke-width:0.73px;}.cls-18{fill:#fff;}.cls-19{stroke-width:0.95px;}</style></defs><g id="Layer_4" data-name="Layer 4"><path class="cls-1" d="M576.65,357.64c2.65-.39,3.12-.44.18.08C575.81,357.9,575.8,357.86,576.65,357.64Z" transform="translate(-312.63 -63.5)"/><path class="cls-1" d="M680.81,334.39s-95.61,21-104.16,23.25c-2.85.42-8.22,1.24-14.58,2.17-13.54,2-31.55,4.48-39.19,4.79l-1.42,0c-1.81,0-6.12.62-12.23,1.54-7.31,1.12-17.19,2.68-28.47,4.17-10.05,1.33-21.21,2.61-32.64,3.47l-.67.05c-1.8.14-3.62.26-5.43.37l-3.09.18c-1.73.09-3.46.17-5.18.23l-.55,0c-3.88.15-7.75.23-11.57.23-1.9,0-3.8,0-5.7,0-25.93-.34-51.23-3.32-58.56-18-13-25.92,5.18-39.75,6.91-68.48,1.72-28.57-14.2-39.77-32.83-61.12-25.64-29.38-25.64-74.83,3.46-100.17,46.53-40.52,98.23,16.48,98.23,16.48l9.58,1.14,60,7.15,18.75,2.24s45.61-38.93,159.35-10.53S680.81,334.39,680.81,334.39Z" transform="translate(-312.63 -63.5)"/><path class="cls-2" d="M538.39,326.52l0-.73-1.52-2.27-3.49-5.11L529.67,313s-3.68-3-4.64-3.58c-3.49-1.95-6.94-3.47-11.13-3.63-2.58-.11-12.23-.06-12.32,1.72-.1,2.64,13,13.17,22.69,18.41C528.58,326.14,538.39,326.52,538.39,326.52Z" transform="translate(-312.63 -63.5)"/><path class="cls-3" d="M536.35,326.44c-13.27-12.12-38.79-76.56-30.68-99.74,15,9.18,30.58,39.38,37.51,64.65a46.35,46.35,0,0,1,.81,5l2.58,16.31.24,14.23Z" transform="translate(-312.63 -63.5)"/><path class="cls-4" d="M545.72,326.81c-4.47-4.31-5.47-16.61-5.33-21.18.27-8.53,1.7-14.76,8.71-23.88s5.83-24.75,15.07-34.89S579.35,234,589.8,234.44s13,19.17,12.82,23.85c-.87,18.89-11.81,21.13-18.76,29.89-5.06,6.36-5.64,11.7-7.22,14.7-8.45,16.16-15,22.14-19.79,24.37Z" transform="translate(-312.63 -63.5)"/><path class="cls-5" d="M548.3,325.55c1.41-32.24,34.23-79.44,41.12-86.44" transform="translate(-312.63 -63.5)"/><path class="cls-5" d="M568.46,287.57c-5.11-5.57-9.76-21.36-9.06-25.46" transform="translate(-312.63 -63.5)"/><path class="cls-5" d="M541.29,323.88c-4.47-9.65-25.65-56.58-32.91-90.81" transform="translate(-312.63 -63.5)"/><path class="cls-6" d="M571.24,327.82l-9.17,32c-13.54,2-31.55,4.48-39.19,4.79l-7.75-39,21.22.83h.23l.41,0,1.15,0h.25l2.88.12,4.45.17,1.09.05,10,.39Z" transform="translate(-312.63 -63.5)"/><path class="cls-5" d="M506.22,308.7c7,.81,15.82,1.51,21.9,6.43" transform="translate(-312.63 -63.5)"/><g id="Layer_2" data-name="Layer 2"><g id="Layer_2-2" data-name="Layer 2-2"><path class="cls-7" d="M423.75,354.83c6.89,7.05,12.58,14.3,15.18,19.58-1.73.09-3.46.17-5.18.23l-.55,0c-3.88.15-7.75.23-11.57.23-1.9,0-3.8,0-5.7,0-19.5-10.69-42.41-30-35.15-40.7,5.51-8.1,21.36,1,35.34,13.41C418.76,349.9,421.33,352.35,423.75,354.83Z" transform="translate(-312.63 -63.5)"/><path class="cls-8" d="M433.75,374.64l-2.24-2.1c-2.68-2.46-5.69-5.05-8.84-7.64-13.52-11.15-29.67-22.49-34.35-25.09" transform="translate(-312.63 -63.5)"/><path class="cls-3" d="M447.45,373.86c-1.8.14-3.62.26-5.43.37l-3.09.18c-1.73.09-3.46.17-5.18.23l-.55,0c-.55-.67-1.12-1.37-1.69-2.12a134.72,134.72,0,0,1-8.33-12.37s0,0,0,0c-2.37-3.92-4.75-8.17-7.06-12.6-13.91-26.59-25.38-59.46-17-63.77,9.9-5.09,20.85,7.41,29.83,25.06C439.91,330.43,447.93,359.7,447.45,373.86Z" transform="translate(-312.63 -63.5)"/><path class="cls-8" d="M442,374.23c-4.44-13.16-10.39-27.34-16-39.77-7.75-17.07-14.94-30.82-16.86-34" transform="translate(-312.63 -63.5)"/></g></g></g><g id="OBJECTS"><path class="cls-9" d="M476.1,220.4l-7.44,40.77L448.12,373.81l-.67.05c-1.8.14-3.62.26-5.43.37l-3.09.18c-1.73.09-3.46.17-5.18.23l-.55,0c-3.88.15-7.75.23-11.57.23.32-3.09.67-6.43,1-10,.16-1.54.33-3.12.51-4.73,0,0,0,0,0,0,.18-1.74.37-3.51.57-5.33.68-6.38,1.43-13.22,2.23-20.37.92-8.23,1.91-16.86,2.95-25.61,4.25-35.82,9.31-73.75,13.87-95.45,1.45-6.87,23.21,2.38,30.75,5.81C475.14,219.93,476.1,220.4,476.1,220.4Z" transform="translate(-312.63 -63.5)"/><path class="cls-9" d="M509.23,366.17c-7.31,1.12-17.19,2.68-28.47,4.17l-12.1-109.17L464.54,224s3.86-2.18,9-4.74c10.11-5,25.2-11.49,25.94-5.81C504.66,253.2,507.77,325,509.23,366.17Z" transform="translate(-312.63 -63.5)"/><line class="cls-10" x1="158.94" y1="198.58" x2="145.08" y2="195.62"/><path class="cls-11" d="M510.92,150.84l22.58,21.78a10.29,10.29,0,0,1-.88,14.38h0c-4.18,3.77-10.25,4.42-14.08.29l-23.35-20.56Z" transform="translate(-312.63 -63.5)"/><path class="cls-11" d="M553.66,138.13l-35.18,36.65a9.4,9.4,0,0,0,1.23,13.6h0a9.39,9.39,0,0,0,13.9-2.59l29-42.22Z" transform="translate(-312.63 -63.5)"/><path class="cls-11" d="M553.66,138.13s-1.41-5,2.37-16a1.8,1.8,0,0,1,1.6-1.21h0a1.8,1.8,0,0,1,1.91,1.88l-.33,5.11,3.37,15.67Z" transform="translate(-312.63 -63.5)"/><path class="cls-11" d="M559.21,127.9,565.62,113c.29-.62,1.07-1.35,1.9-1.06h0a1.48,1.48,0,0,1,1.1,1.86l-4,10.78,7-11.64a1.23,1.23,0,0,1,1.65-.45h0a1.24,1.24,0,0,1,.53,1.6l-6.09,13.24,7.18-10a1.37,1.37,0,0,1,1.71-.44h0a1.37,1.37,0,0,1,.62,1.89L571,130.44l8.44-5.41a1.31,1.31,0,0,1,1.82.67h0a1.31,1.31,0,0,1-.43,1.51l-8.22,7.35s-2.59,5.59-10,9l-6.08-8Z" transform="translate(-312.63 -63.5)"/><line class="cls-12" x1="214.15" y1="102.63" x2="208.83" y2="108.17"/><path class="cls-13" d="M485.11,127.09c20.63,3.08,36.35,27,36.35,27l-19.85,23.68-14.93-25.23Z" transform="translate(-312.63 -63.5)"/><path class="cls-11" d="M443.35,170.83l-22.12,88.29-9-1.69s5.53-55.08,14.52-92.35Z" transform="translate(-312.63 -63.5)"/><path class="cls-11" d="M412.6,254.57s-15.78,24.48.41,33.53a2.71,2.71,0,0,0,3.4-1l.12-.15a3.24,3.24,0,0,0,.11-4.06c-2.21-2.53-5-7.91.64-15.72,0,0,2.65.54,1.77,6.59a2,2,0,0,0,2.22,2.5h0a2.84,2.84,0,0,0,2.08-2c1.17-4,3.35-14-1.94-18.79Z" transform="translate(-312.63 -63.5)"/><path class="cls-13" d="M447.76,131.24s-16.14,3.68-26.49,36l25.85,15.1,6.08-21.46Z" transform="translate(-312.63 -63.5)"/><path class="cls-14" d="M485.11,127.09l12.19,4.62c3.19,1.17,6,9.95,5.19,13.24l2.88,89.88c-22,17.93-69.15,3-69.15,3l6.79-97.2c-.51-2.29.76-7.79,2.94-8.65l16.46-6.56Z" transform="translate(-312.63 -63.5)"/><line class="cls-13" x1="127.71" y1="115.36" x2="129.55" y2="88.93"/><line class="cls-13" x1="190.84" y1="112.06" x2="190.66" y2="86.16"/><path class="cls-11" d="M479.78,128.57l-1.11-20.41a19.11,19.11,0,0,1-6.09,2.76,9.31,9.31,0,0,1-5.75-1.17l-3.37-2-1.1,19.07c0,.2-.16,1.91-.19,2.12l17.66.14A3.29,3.29,0,0,1,479.78,128.57Z" transform="translate(-312.63 -63.5)"/><path class="cls-15" d="M462.77,108.44s4.7,8.58,10.3,7.35c5.84-1.28,6.06-8.76,6.06-8.76Z" transform="translate(-312.63 -63.5)"/><path class="cls-11" d="M486.79,84.78A74,74,0,0,1,485,101c-.89,3.93-3.4,6.67-6.94,8.88l-.64.4a12,12,0,0,1-12.39.14h0c-3.84-2.27-6.52-5.26-7.35-9.47A109,109,0,0,1,456,84.78s-1.43-16.53,15.19-16.21S486.79,84.78,486.79,84.78Z" transform="translate(-312.63 -63.5)"/><path class="cls-11" d="M457.8,100.3c-2.93,2.53-9.09-7.48-6.26-10.18s4.84,1.69,4.84,1.69L457,95l.86,4.25.22,1Z" transform="translate(-312.63 -63.5)"/><path class="cls-16" d="M452.81,93.49s1.2-2.59,4,2" transform="translate(-312.63 -63.5)"/><path class="cls-11" d="M485,100.36c3,2.48,9-7.64,6.08-10.29s-4.81,1.78-4.81,1.78L485.71,95l-.78,4.27-.21,1Z" transform="translate(-312.63 -63.5)"/><path class="cls-16" d="M489.83,93.47s-1.25-2.57-3.95,2" transform="translate(-312.63 -63.5)"/><path class="cls-17" d="M470.35,93.58v2a.8.8,0,0,0,1,.81l1.1-.23" transform="translate(-312.63 -63.5)"/><path class="cls-15" d="M473.49,84.57l8.84,2.29s-.4-2.48-4-3.38S473.49,84.57,473.49,84.57Z" transform="translate(-312.63 -63.5)"/><path class="cls-15" d="M468,84.57l-8.84,2.29s.4-2.48,4-3.38S468,84.57,468,84.57Z" transform="translate(-312.63 -63.5)"/><path class="cls-18" d="M465.18,99.49h11.49s-.91,3.2-5.74,3.2A6.62,6.62,0,0,1,465.18,99.49Z" transform="translate(-312.63 -63.5)"/><path class="cls-19" d="M462.16,90.66a3.9,3.9,0,0,1,4.1,0" transform="translate(-312.63 -63.5)"/><path class="cls-19" d="M479.94,90.66a4.11,4.11,0,0,0-4.2,0" transform="translate(-312.63 -63.5)"/><path class="cls-15" d="M456.51,92.52s3.54-11.42,1-18.81C457.49,73.71,449.47,77.68,456.51,92.52Z" transform="translate(-312.63 -63.5)"/><path class="cls-15" d="M486.12,92.52s-4.47-11.42-1.9-18.81C484.22,73.71,492.28,76.77,486.12,92.52Z" transform="translate(-312.63 -63.5)"/><path class="cls-15" d="M456.31,75.41s22.2,11.39,30.8,2.37c0,0,7.05-7.1-.71-12.59s-25.55,4.17-25.55,4.17S456.88,70.3,456.31,75.41Z" transform="translate(-312.63 -63.5)"/><path class="cls-15" d="M456.31,75.41s-4.14-7.34,7.65-11c0,0,2.87,2.94-1.24,6.81S456.31,75.41,456.31,75.41Z" transform="translate(-312.63 -63.5)"/><path class="cls-11" d="M462.41,125.4l-7,2.79s1,8.28,11.62,8.3a26.41,26.41,0,0,0,19.78-9.1l-9.24-2.57Z" transform="translate(-312.63 -63.5)"/></g></svg>